<?xml version="1.0" encoding="UTF-8"?>
<svg width="152px" height="152px" viewBox="0 0 152 152" version="1.1" xmlns="http://www.w3.org/2000/svg" xmlns:xlink="http://www.w3.org/1999/xlink">
    <!-- Generator: Sketch 63.1 (92452) - https://sketch.com -->
    <title>hero.general</title>
    <desc>Created with Sketch.</desc>
    <g id="Symbols" stroke="none" stroke-width="1" fill="none" fill-rule="evenodd">
        <g id="Dashboard-Card---Labels" transform="translate(-128.000000, -50.000000)">
            <g id="hero.general" transform="translate(128.000000, 50.000000)">
                <path d="M109.59,124.32 C109.83,132.21 112.47,134.55 113.16,135.03 L120.18,135.03 C120.33,135.03 120.51,135.03 120.66,135.06 C124.83,131.88 128.67,128.28 132.12,124.32 L109.59,124.32 Z" id="Path"></path>
                <path d="M62.88,140.76 L62.88,139.11 C62.88,136.77 65.34,135.03 67.56,135.03 L74.58,135.03 C75.27,134.55 77.91,132.15 78.15,124.32 L30.21,124.32 C27.54,124.32 25.35,122.13 25.35,119.46 L25.35,112.95 L25.35,37.32 C25.35,34.65 27.54,32.46 30.21,32.46 L136.14,32.46 C122.67,13.71 100.68,1.5 75.81,1.5 C34.77,1.5 1.5,34.77 1.5,75.81 C1.5,116.85 34.77,150.12 75.81,150.12 C88.02,150.12 99.54,147.18 109.68,141.96 L64.08,141.96 C63.42,141.96 62.88,141.42 62.88,140.76 Z" id="Path"></path>
                <path d="M27.78,37.32 L27.78,111.78 L140.88,111.78 C141.66,110.34 142.41,108.9 143.13,107.4 L33.87,107.4 C33.21,107.4 32.67,106.86 32.67,106.2 L32.67,39.84 C32.67,39.18 33.21,38.64 33.87,38.64 L140.16,38.64 C139.41,37.35 138.63,36.09 137.82,34.86 L30.21,34.86 C28.86,34.86 27.78,35.94 27.78,37.32 Z" id="Path" fill="#B7B7B7" fill-rule="nonzero"></path>
                <path d="M27.78,119.46 C27.78,120.81 28.89,121.92 30.24,121.92 L79.38,121.92 L108.39,121.92 L134.1,121.92 C136.05,119.46 137.85,116.88 139.47,114.18 L27.78,114.18 L27.78,119.46 Z M89.7,116.67 L98.01,116.67 C98.73,116.67 99.33,117.27 99.33,117.99 C99.33,118.71 98.73,119.31 98.01,119.31 L89.7,119.31 C88.98,119.31 88.38,118.71 88.38,117.99 C88.38,117.27 88.98,116.67 89.7,116.67 Z" id="Shape" fill="#FFFFFF" fill-rule="nonzero"></path>
                <path d="M35.07,104.97 L144.18,104.97 C148.02,96 150.12,86.16 150.12,75.81 C150.12,63.24 147,51.42 141.48,41.04 L35.07,41.04 L35.07,104.97 Z M118.14,93.81 L112.35,99.6 L98.4,85.65 L93.84,99.66 L78.63,60.09 L118.2,75.33 L104.19,79.89 L118.14,93.81 Z M84.21,47.55 C84.21,46.89 84.75,46.35 85.41,46.35 C86.07,46.35 86.61,46.89 86.61,47.55 L86.61,52.95 C86.61,53.61 86.07,54.15 85.41,54.15 C84.75,54.15 84.21,53.61 84.21,52.95 L84.21,47.55 Z M74.91,49.17 C75.48,48.84 76.23,49.05 76.56,49.62 L79.26,54.3 C79.59,54.87 79.38,55.62 78.81,55.95 C78.63,56.07 78.42,56.1 78.21,56.1 C77.79,56.1 77.4,55.89 77.16,55.5 L74.46,50.82 C74.13,50.22 74.34,49.5 74.91,49.17 Z M67.23,56.85 C67.56,56.28 68.31,56.07 68.88,56.4 L73.56,59.1 C74.13,59.43 74.34,60.18 74.01,60.75 C73.8,61.14 73.38,61.35 72.96,61.35 C72.75,61.35 72.54,61.29 72.36,61.2 L67.68,58.5 C67.08,58.17 66.9,57.42 67.23,56.85 Z M65.61,66.15 L71.01,66.15 C71.67,66.15 72.21,66.69 72.21,67.35 C72.21,68.01 71.67,68.55 71.01,68.55 L65.61,68.55 C64.95,68.55 64.41,68.01 64.41,67.35 C64.41,66.69 64.95,66.15 65.61,66.15 Z" id="Shape" fill="#FFFFFF" fill-rule="nonzero"></path>
                <path d="M80.55,124.32 C80.4,129.93 79.08,133.17 77.82,135.03 L109.92,135.03 C108.66,133.17 107.37,129.9 107.19,124.32 L80.55,124.32 Z" id="Path" fill="#B7B7B7" fill-rule="nonzero"></path>
                <path d="M74.91,137.43 L67.56,137.43 C66.48,137.43 65.28,138.33 65.28,139.11 L65.28,139.56 L114,139.56 C115.14,138.87 116.28,138.15 117.36,137.43 L112.83,137.43 L74.91,137.43 Z" id="Path" fill="#B7B7B7" fill-rule="nonzero"></path>
                <path d="M89.7,119.31 L98.01,119.31 C98.73,119.31 99.33,118.71 99.33,117.99 C99.33,117.27 98.73,116.67 98.01,116.67 L89.7,116.67 C88.98,116.67 88.38,117.27 88.38,117.99 C88.38,118.71 88.98,119.31 89.7,119.31 Z" id="Path" fill="#B7B7B7" fill-rule="nonzero"></path>
                <polygon id="Path" fill="#B7B7B7" fill-rule="nonzero" points="78.63 60.12 93.87 99.66 98.43 85.65 112.35 99.6 118.14 93.81 104.19 79.89 118.2 75.33"></polygon>
                <path d="M25.38,37.32 L25.38,112.98 C25.38,112.32 25.92,111.78 26.58,111.78 L27.78,111.78 L27.78,37.32 C27.78,35.97 28.89,34.86 30.24,34.86 L137.85,34.86 C137.31,34.05 136.77,33.24 136.2,32.46 L30.21,32.46 C27.54,32.46 25.38,34.62 25.38,37.32 Z" id="Path" fill="#321850" fill-rule="nonzero"></path>
                <path d="M26.58,111.75 C25.92,111.75 25.38,112.29 25.38,112.95 L25.38,119.46 C25.38,122.13 27.57,124.32 30.24,124.32 L78.18,124.32 C78.18,123.93 78.21,123.54 78.21,123.12 C78.21,122.46 78.75,121.92 79.41,121.92 L30.21,121.92 C28.86,121.92 27.75,120.81 27.75,119.46 L27.75,114.15 L139.47,114.15 C139.95,113.37 140.4,112.56 140.85,111.75 L27.75,111.75 L26.58,111.75 Z" id="Path" fill="#321850" fill-rule="nonzero"></path>
                <path d="M109.56,123.12 C109.56,123.54 109.56,123.93 109.59,124.32 L132.12,124.32 C132.81,123.54 133.47,122.73 134.1,121.92 L108.39,121.92 C109.02,121.92 109.56,122.46 109.56,123.12 Z" id="Path" fill="#321850" fill-rule="nonzero"></path>
                <path d="M32.67,39.84 L32.67,106.2 C32.67,106.86 33.21,107.4 33.87,107.4 L143.1,107.4 C143.46,106.62 143.82,105.81 144.18,105 L35.07,105 L35.07,41.04 L141.48,41.04 C141.06,40.23 140.61,39.42 140.16,38.64 L33.87,38.64 C33.21,38.64 32.67,39.18 32.67,39.84 Z" id="Path" fill="#321850" fill-rule="nonzero"></path>
                <path d="M108.36,121.92 L79.35,121.92 C78.69,121.92 78.15,122.46 78.15,123.12 C78.15,123.54 78.15,123.93 78.12,124.32 C77.88,132.15 75.24,134.55 74.55,135.03 L77.79,135.03 C79.05,133.17 80.34,129.9 80.52,124.32 L107.16,124.32 C107.31,129.93 108.63,133.17 109.89,135.03 L113.13,135.03 C112.44,134.55 109.8,132.18 109.56,124.32 C109.56,123.93 109.53,123.54 109.53,123.12 C109.56,122.46 109.02,121.92 108.36,121.92 Z" id="Path" fill="#321850" fill-rule="nonzero"></path>
                <path d="M113.16,135.03 L109.92,135.03 L77.82,135.03 L74.58,135.03 L67.56,135.03 C65.34,135.03 62.88,136.77 62.88,139.11 L62.88,140.76 C62.88,141.42 63.42,141.96 64.08,141.96 L109.68,141.96 C111.15,141.21 112.59,140.4 114,139.56 L65.28,139.56 L65.28,139.11 C65.28,138.33 66.51,137.43 67.56,137.43 L74.91,137.43 L112.83,137.43 L117.36,137.43 C118.47,136.68 119.58,135.87 120.66,135.06 C120.51,135.03 120.33,135.03 120.18,135.03 L113.16,135.03 Z" id="Path" fill="#321850" fill-rule="nonzero"></path>
                <path d="M85.41,54.15 C86.07,54.15 86.61,53.61 86.61,52.95 L86.61,47.55 C86.61,46.89 86.07,46.35 85.41,46.35 C84.75,46.35 84.21,46.89 84.21,47.55 L84.21,52.95 C84.21,53.61 84.75,54.15 85.41,54.15 Z" id="Path" fill="#321850" fill-rule="nonzero"></path>
                <path d="M77.16,55.47 C77.37,55.86 77.79,56.07 78.21,56.07 C78.42,56.07 78.63,56.01 78.81,55.92 C79.38,55.59 79.59,54.84 79.26,54.27 L76.56,49.59 C76.23,49.02 75.48,48.81 74.91,49.14 C74.34,49.47 74.13,50.22 74.46,50.79 L77.16,55.47 Z" id="Path" fill="#321850" fill-rule="nonzero"></path>
                <path d="M67.65,58.5 L72.33,61.2 C72.51,61.32 72.72,61.35 72.93,61.35 C73.35,61.35 73.74,61.14 73.98,60.75 C74.31,60.18 74.1,59.43 73.53,59.1 L68.85,56.4 C68.28,56.07 67.53,56.28 67.2,56.85 C66.9,57.42 67.08,58.17 67.65,58.5 Z" id="Path" fill="#321850" fill-rule="nonzero"></path>
                <path d="M65.61,68.55 L71.01,68.55 C71.67,68.55 72.21,68.01 72.21,67.35 C72.21,66.69 71.67,66.15 71.01,66.15 L65.61,66.15 C64.95,66.15 64.41,66.69 64.41,67.35 C64.41,68.01 64.95,68.55 65.61,68.55 Z" id="Path" fill="#321850" fill-rule="nonzero"></path>
                <path d="M95.34,5.61 C95.22,5.61 95.07,5.58 94.95,5.55 C92.49,4.89 89.94,4.32 87.39,3.93 C86.58,3.81 86.01,3.03 86.16,2.22 C86.28,1.41 87.06,0.84 87.87,0.99 C90.51,1.41 93.15,1.98 95.73,2.67 C96.54,2.88 96.99,3.72 96.78,4.5 C96.6,5.16 96,5.61 95.34,5.61 Z" id="Path" fill="#321850" fill-rule="nonzero"></path>
                <path d="M75.81,151.62 C55.56,151.62 36.51,143.73 22.2,129.42 C7.89,115.11 0,96.06 0,75.81 C0,55.56 7.89,36.51 22.2,22.2 C36.51,7.89 55.56,0 75.81,0 C76.65,0 77.31,0.66 77.31,1.5 C77.31,2.34 76.65,3 75.81,3 C56.37,3 38.07,10.56 24.33,24.33 C10.56,38.07 3,56.37 3,75.81 C3,95.25 10.56,113.55 24.33,127.29 C38.07,141.03 56.37,148.62 75.81,148.62 C95.25,148.62 113.55,141.06 127.29,127.29 C141.03,113.55 148.62,95.25 148.62,75.81 C148.62,62.16 144.81,48.87 137.64,37.35 C130.65,26.13 120.75,17.04 109.02,11.01 C108.27,10.62 108,9.72 108.36,9 C108.75,8.25 109.65,7.98 110.37,8.34 C122.58,14.61 132.87,24.09 140.16,35.76 C147.63,47.76 151.59,61.59 151.59,75.81 C151.59,96.06 143.7,115.11 129.39,129.42 C115.11,143.73 96.06,151.62 75.81,151.62 Z" id="Path" fill="#321850" fill-rule="nonzero"></path>
                <circle id="Oval" fill="#321850" fill-rule="nonzero" cx="102.63" cy="6.42" r="1.92"></circle>
            </g>
        </g>
    </g>
</svg>