<?xml version="1.0" encoding="UTF-8"?>
<svg viewBox="0 0 133 133" version="1.1" xmlns="http://www.w3.org/2000/svg" xmlns:xlink="http://www.w3.org/1999/xlink">
    <!-- Generator: Sketch 63.1 (92452) - https://sketch.com -->
    <title>Group</title>
    <desc>Created with Sketch.</desc>
    <g id="Brand" stroke="none" stroke-width="1" fill="none" fill-rule="evenodd">
        <g id="Brand---Iconography" transform="translate(-574.000000, -1540.000000)" fill="#000000" fill-rule="nonzero">
            <g id="Group" transform="translate(574.000000, 1540.000000)">
                <path d="M129.36,26.48 C128.48,24.8 126.4,24.08 124.64,24.96 C124.32,25.12 124,25.36 123.76,25.6 L105.52,43.84 C102.96,46.32 98.88,46.32 96.4,43.84 L88.4,35.84 C85.92,33.28 85.92,29.2 88.4,26.72 L106.56,8.56 C107.92,7.2 108,5.04 106.64,3.6 C106.32,3.28 105.92,3.04 105.52,2.8 C92.24,-2.88 75.76,0.32 65.44,10.56 C56.56,19.44 53.92,33.28 58.24,48.72 C58.88,51.04 58.16,53.52 56.4,55.2 L6,101.12 C-1.36,107.6 -2,118.88 4.48,126.16 C7.6,129.68 12,131.84 16.72,132.08 C17.12,132.08 17.44,132.08 17.84,132.08 C22.16,132.08 26.32,130.48 29.6,127.6 C30.16,127.12 30.64,126.64 31.04,126.16 L77.52,75.68 C79.12,73.92 81.6,73.2 83.92,73.84 C99.12,77.92 112.88,75.28 121.68,66.64 C132.64,55.84 134.56,37.12 129.36,26.48 Z M117.12,62.16 C107.04,72.16 91.68,69.36 85.52,67.76 C80.88,66.56 76.08,67.92 72.8,71.44 L26.24,121.92 C25.92,122.24 25.6,122.56 25.28,122.88 C23.04,124.88 20.08,125.92 17.04,125.68 C14,125.52 11.2,124.16 9.2,121.84 C5.04,117.12 5.44,110 10.16,105.76 L60.48,59.76 C64.08,56.48 65.44,51.52 64.16,46.88 C62.4,40.72 59.44,25.2 69.68,15.04 C75.52,9.44 83.52,6.4 91.44,6.4 C93.84,6.4 96.32,6.72 98.64,7.28 L83.76,22.16 C78.8,27.2 78.8,35.36 83.76,40.32 L91.76,48.32 C96.8,53.28 104.96,53.28 109.92,48.32 C109.92,48.32 109.92,48.32 109.92,48.32 L124.96,33.28 C127.12,42.08 124.8,54.56 117.12,62.16 Z" id="Shape"></path>
                <path d="M17.76,106.32 C13.36,106.32 9.76,109.92 9.76,114.32 C9.76,118.72 13.36,122.32 17.76,122.32 C22.16,122.32 25.76,118.72 25.76,114.32 C25.76,109.92 22.16,106.32 17.76,106.32 Z M17.76,116 C16.88,116 16.16,115.28 16.16,114.4 C16.16,113.52 16.88,112.8 17.76,112.8 C18.64,112.8 19.36,113.52 19.36,114.4 C19.36,115.28 18.64,116 17.76,116 Z" id="Shape"></path>
            </g>
        </g>
    </g>
</svg>
