<?xml version="1.0" encoding="UTF-8"?>
<svg viewBox="0 0 54 73" version="1.1" xmlns="http://www.w3.org/2000/svg" xmlns:xlink="http://www.w3.org/1999/xlink">
    <!-- Generator: Sketch 63.1 (92452) - https://sketch.com -->
    <title>flash-outlineicon</title>
    <desc>Created with Sketch.</desc>
    <g id="Brand" stroke="none" stroke-width="1" fill="none" fill-rule="evenodd" stroke-linecap="round" stroke-linejoin="round">
        <g id="Brand---Iconography" transform="translate(-853.000000, -796.000000)" stroke="#000000" stroke-width="4.8">
            <g id="flash-outline" transform="translate(856.000000, 799.000000)">
                <path d="M32.8905,0.15 L0,40.8 L19.2,40.8 L14.4735,66.7845 C14.455293,66.8877059 14.4837508,66.9936746 14.5512114,67.0738745 C14.618672,67.1540745 14.7182007,67.2000011 14.823,67.2000011 L14.823,67.2000011 C14.9346883,67.2000011 15.039771,67.147063 15.1065,67.0575 L48,26.4 L28.8,26.4 L33.549,0.4125 C33.5619226,0.307765123 33.5291976,0.202529122 33.4591592,0.123592389 C33.3891208,0.0446556552 33.2885285,-2.18404755e-06 33.183,-2.18404755e-06 L33.183,-2.18404755e-06 C33.06715,-2.18404755e-06 32.9584777,0.0561892282 32.8905,0.15 Z" id="Path"></path>
            </g>
        </g>
    </g>
</svg>
