<?xml version="1.0" encoding="UTF-8"?>
<svg viewBox="0 0 68 68" version="1.1" xmlns="http://www.w3.org/2000/svg" xmlns:xlink="http://www.w3.org/1999/xlink">
    <!-- Generator: Sketch 63.1 (92452) - https://sketch.com -->
    <title>calendar-outlineicon</title>
    <desc>Created with Sketch.</desc>
    <g id="Brand" stroke="none" stroke-width="1" fill="none" fill-rule="evenodd">
        <g id="Brand---Iconography" transform="translate(-1006.000000, -252.000000)">
            <g id="calendar-outline" transform="translate(1009.000000, 255.000000)">
                <rect id="Rectangle" stroke="#000000" stroke-width="4.8" stroke-linejoin="round" x="0" y="4.8" width="62.4" height="57.6" rx="7.2"></rect>
                <path d="M52.473,4.8 L9.927,4.8 C4.4535,4.8 0,9.3225 0,14.88 L0,24 L2.4,24 C2.4,21.6 4.8,19.2 7.2,19.2 L55.2,19.2 C57.6,19.2 60,21.6 60,24 L62.4,24 L62.4,14.88 C62.4,9.3225 57.9465,4.8 52.473,4.8 Z" id="Path" fill="#000000" fill-rule="nonzero"></path>
                <circle id="Oval" fill="#000000" fill-rule="nonzero" cx="37.2" cy="27.6" r="3.6"></circle>
                <circle id="Oval" fill="#000000" fill-rule="nonzero" cx="49.2" cy="27.6" r="3.6"></circle>
                <circle id="Oval" fill="#000000" fill-rule="nonzero" cx="37.2" cy="39.6" r="3.6"></circle>
                <circle id="Oval" fill="#000000" fill-rule="nonzero" cx="49.2" cy="39.6" r="3.6"></circle>
                <circle id="Oval" fill="#000000" fill-rule="nonzero" cx="13.2" cy="39.6" r="3.6"></circle>
                <circle id="Oval" fill="#000000" fill-rule="nonzero" cx="25.2" cy="39.6" r="3.6"></circle>
                <circle id="Oval" fill="#000000" fill-rule="nonzero" cx="13.2" cy="51.6" r="3.6"></circle>
                <circle id="Oval" fill="#000000" fill-rule="nonzero" cx="25.2" cy="51.6" r="3.6"></circle>
                <circle id="Oval" fill="#000000" fill-rule="nonzero" cx="37.2" cy="51.6" r="3.6"></circle>
                <line x1="12" y1="0" x2="12" y2="4.8" id="Path" stroke="#000000" stroke-width="4.8" stroke-linecap="round" stroke-linejoin="round"></line>
                <line x1="50.4" y1="0" x2="50.4" y2="4.8" id="Path" stroke="#000000" stroke-width="4.8" stroke-linecap="round" stroke-linejoin="round"></line>
            </g>
        </g>
    </g>
</svg>
