<?xml version="1.0" encoding="UTF-8"?>
<svg viewBox="0 0 35 59" version="1.1" xmlns="http://www.w3.org/2000/svg" xmlns:xlink="http://www.w3.org/1999/xlink">
    <!-- Generator: Sketch 63.1 (92452) - https://sketch.com -->
    <title>attachicon</title>
    <desc>Created with Sketch.</desc>
    <g id="Brand" stroke="none" stroke-width="1" fill="none" fill-rule="evenodd" stroke-linecap="round">
        <g id="Brand---Iconography" transform="translate(-1183.000000, -404.000000)" stroke="#000000" stroke-width="4.8">
            <g id="attach" transform="translate(1186.000000, 407.000000)">
                <path d="M8.412,17.1 L8.412,38.6775 C8.46386024,41.9604009 11.1399395,44.5945398 14.42325,44.5945398 C17.7065605,44.5945398 20.3826398,41.9604009 20.4345,38.6775 L20.454,10.395 C20.4985285,6.72491243 18.5660753,3.31439584 15.3948998,1.46637747 C12.2237244,-0.381640905 8.30377559,-0.381640905 5.13260016,1.46637747 C1.96142473,3.31439584 0.0289715449,6.72491243 0.0735,10.395 L0.0735,38.868 C-0.00127955124,44.0352345 2.71257712,48.8422801 7.17548637,51.4477255 C11.6383956,54.0531709 17.1586044,54.0531709 21.6215136,51.4477255 C26.0844229,48.8422801 28.7982796,44.0352345 28.7235,38.868 L28.7235,12.261" id="Path"></path>
            </g>
        </g>
    </g>
</svg>
