<?xml version="1.0" encoding="UTF-8"?>
<svg width="20px" height="20px" viewBox="0 0 20 20" version="1.1" xmlns="http://www.w3.org/2000/svg" xmlns:xlink="http://www.w3.org/1999/xlink">
    <!-- Generator: Sketch 63.1 (92452) - https://sketch.com -->
    <title>icon.logo</title>
    <desc>Created with Sketch.</desc>
    <g id="Design-System" stroke="none" stroke-width="1" fill="none" fill-rule="evenodd">
        <g id="Padding-and-spacing" transform="translate(-30.000000, -108.000000)" fill="#321850" fill-rule="nonzero">
            <g id="icon.logo" transform="translate(30.000000, 108.000000)">
                <path d="M4.498696,11.005292 C5.2095345,11.005292 5.92037299,11.005292 6.63121149,11.005292 C7.98018909,11.005292 8.95759202,11.9371761 8.98182515,13.290434 C9.00605828,14.7571387 9.00605828,16.2238433 8.98182515,17.6905479 C8.95759202,19.0113925 8.03673306,19.9432766 6.71198859,19.97569 C5.23376763,20.0081033 3.76362437,20.0081033 2.28540341,19.97569 C0.93642581,19.95138 0.0721108201,19.0843225 0.023644559,17.6095145 C-0.0248217021,16.0779832 0.00748913859,14.5464518 0.0640331099,13.0149204 C0.112499371,11.8885561 1.07374688,11.029602 2.1965486,11.0133953 C2.96393107,10.9890853 3.73131353,11.005292 4.498696,11.005292 Z M4.46638516,18.4684686 C5.17722366,18.4684686 5.88806215,18.476572 6.59890065,18.4684686 C7.1966512,18.4603653 7.46321564,18.2091617 7.46321564,17.6014112 C7.47129335,16.1914299 7.47129335,14.7733453 7.46321564,13.3633641 C7.45513793,12.7637169 7.18857349,12.5125133 6.58274523,12.50441 C5.17722366,12.4963066 3.76362437,12.4963066 2.3581028,12.50441 C1.77650767,12.50441 1.50994323,12.7880269 1.50994323,13.3876741 C1.50186552,14.789552 1.50186552,16.1833266 1.50994323,17.5852045 C1.50994323,18.168645 1.79266309,18.4603653 2.36618051,18.4603653 C3.07701901,18.476572 3.77170208,18.4684686 4.46638516,18.4684686 Z" id="Shape"></path>
                <path d="M11.0081089,4.46898426 C11.0081089,3.82256204 11.0081089,3.1842201 11.0081089,2.53779788 C11.0081089,1.01062539 11.7703443,0.105634281 13.2867061,0.0409920587 C14.8192857,-0.0317304409 16.3518654,0.000590670013 17.884445,0.0733131696 C19.1494314,0.137955392 19.9684289,1.05910705 19.9846467,2.32771066 C20.0008645,3.77408037 20.0089734,5.22853037 19.9846467,6.67490008 C19.96032,8.0485473 19.0034714,8.97777924 17.6168517,8.99393979 C16.2059054,9.00202007 14.7868502,9.00202007 13.3759039,8.99393979 C11.9487398,8.98585951 11.0081089,8.02430646 11,6.61025786 C11.0081089,5.89111314 11.0081089,5.1800487 11.0081089,4.46898426 Z M15.4679967,1.52776316 C14.7544146,1.52776316 14.0408326,1.51968288 13.3272505,1.52776316 C12.8082818,1.53584344 12.5163619,1.81057288 12.5163619,2.32771066 C12.508253,3.77408037 12.508253,5.22853037 12.5163619,6.67490008 C12.5163619,7.18395758 12.7677373,7.47484758 13.2785972,7.48292785 C14.7463058,7.50716869 16.2140143,7.50716869 17.6817228,7.48292785 C18.241236,7.47484758 18.4763937,7.18395758 18.4763937,6.62641841 C18.4845026,5.22045009 18.4845026,3.80640148 18.4763937,2.40043316 C18.4763937,1.80249261 18.1844738,1.52776316 17.5681984,1.52776316 C16.8708341,1.51968288 16.1734699,1.52776316 15.4679967,1.52776316 Z" id="Shape"></path>
                <path d="M4.49596009,0 C6.95120504,0 8.99997631,2.03427426 8.99997631,4.47540338 C9.00808243,6.91653249 6.93494514,9.03217772 4.47970019,8.99962934 C1.9675456,8.95894385 0.0163575593,7.00604056 9.76590108e-05,4.50795176 C-0.0161622413,2.01800007 2.0000654,0 4.49596009,0 Z M7.47152185,4.49167757 C7.47152185,2.83984687 6.13821002,1.49722586 4.49596009,1.4890524 C2.86997006,1.48095166 1.49600849,2.83984687 1.487842,4.46726628 C1.47974859,6.12723408 2.82932031,7.47799219 4.49596009,7.47799219 C6.14633997,7.47799219 7.47152185,6.14350827 7.47152185,4.49167757 Z" id="Shape"></path>
                <path d="M16.384809,15.5282615 C16.7329921,15.8238254 17.0206215,16.0511824 17.2779742,16.3012749 C17.7245568,16.7256745 18.1560009,17.1728097 18.5874451,17.6047879 C19.0643045,18.0822374 19.1248581,18.4232727 18.7842442,18.7718866 C18.4436304,19.1205006 18.0954474,19.0750292 17.618588,18.5975797 C17.0130523,17.9912946 16.4075166,17.3850095 15.8019809,16.786303 C15.7035814,16.6953602 15.6051818,16.6044175 15.4689363,16.4831605 C14.7195859,17.2410168 14.0005122,17.9761375 13.2738694,18.7036796 C12.834856,19.1356577 12.2444587,19.0447149 12.0476596,18.521794 C11.9038449,18.1428659 12.1082132,17.8700376 12.3579966,17.619945 C12.9711015,17.0060814 13.5766372,16.3922177 14.2124497,15.8010898 C14.4773716,15.5509972 14.4470948,15.4070045 14.2048805,15.172069 C13.5766372,14.5733625 12.9711015,13.9519203 12.3655658,13.3380566 C11.9416908,12.9060785 11.8887065,12.5195718 12.2141819,12.2012721 C12.5320881,11.890551 12.9181172,11.9436009 13.3268538,12.3528434 C13.9702354,12.9894427 14.6136171,13.626042 15.2418604,14.2777985 C15.4235211,14.4672626 15.5521974,14.4748411 15.7338582,14.2777985 C16.3696706,13.6184635 17.0206215,12.966707 17.6640032,12.3149506 C17.966771,12.0042295 18.3073849,11.9132867 18.6101527,12.0875937 C19.0567353,12.3452648 19.1097197,12.8530286 18.7085523,13.262271 C18.0878782,13.8988703 17.4520657,14.5278911 16.8162532,15.1569119 C16.7329921,15.2478546 16.6194541,15.3312188 16.384809,15.5282615 Z" id="Path"></path>
            </g>
        </g>
    </g>
</svg>