<?xml version="1.0" encoding="UTF-8"?>
<svg viewBox="0 0 63 63" version="1.1" xmlns="http://www.w3.org/2000/svg" xmlns:xlink="http://www.w3.org/1999/xlink">
    <!-- Generator: Sketch 63.1 (92452) - https://sketch.com -->
    <title>navigate-circle-outlineicon</title>
    <desc>Created with Sketch.</desc>
    <g id="Brand" stroke="none" stroke-width="1" fill="none" fill-rule="evenodd">
        <g id="Brand---Iconography" transform="translate(-688.000000, -255.000000)">
            <g id="navigate-circle-outline" transform="translate(691.000000, 258.000000)">
                <path d="M40.914,14.55 L12.9345,26.9025 C11.364,27.6225 11.892,30.003 13.62,30.003 L27,30.003 C27.3313708,30.003 27.6,30.2716292 27.6,30.603 L27.6,43.98 C27.6,45.708 30,46.23 30.717,44.664 L43.05,16.686 C43.3327586,16.0736944 43.2037712,15.3500323 42.7268694,14.8731306 C42.2499677,14.3962288 41.5263056,14.2672414 40.914,14.55 Z" id="Path" fill="#000000" fill-rule="nonzero"></path>
                <path d="M57.6,28.8 C57.6,12.9 44.7,0 28.8,0 C12.9,0 0,12.9 0,28.8 C0,44.7 12.9,57.6 28.8,57.6 C44.7,57.6 57.6,44.7 57.6,28.8 Z" id="Path" stroke="#000000" stroke-width="4.8"></path>
            </g>
        </g>
    </g>
</svg>
