<?xml version="1.0" encoding="UTF-8"?>
<svg width="487px" height="79px" viewBox="0 0 487 79" version="1.1" xmlns="http://www.w3.org/2000/svg" xmlns:xlink="http://www.w3.org/1999/xlink">
    <!-- Generator: Sketch 63.1 (92452) - https://sketch.com -->
    <title>Big logo</title>
    <desc>Created with Sketch.</desc>
    <g id="Design-System" stroke="none" stroke-width="1" fill="none" fill-rule="evenodd">
        <g id="Logo" transform="translate(-637.000000, -352.000000)" fill-rule="nonzero">
            <g id="figure" transform="translate(490.000000, 180.000000)">
                <g id="Big-logo" transform="translate(147.000000, 172.000000)">
                    <path d="M229.536,44.88 C229.536,37.104 229.536,37.104 229.536,37.104 C233.904,38.496 237.84,39.168 241.296,39.168 C246,39.168 248.352,37.92 248.352,35.424 C248.352,34.512 248.016,33.696 247.344,33.12 C246.624,32.448 244.848,31.488 241.872,30.288 C236.736,28.224 233.328,26.4 231.792,24.816 C229.728,22.848 228.72,20.352 228.72,17.28 C228.72,13.392 230.208,10.416 233.184,8.4 C236.064,6.336 239.904,5.328 244.608,5.328 C247.344,5.328 250.752,5.76 254.976,6.576 C255.984,6.72 255.984,6.72 255.984,6.72 C255.984,14.256 255.984,14.256 255.984,14.256 C252.336,12.768 248.88,12 245.712,12 C241.344,12 239.088,13.248 239.088,15.648 C239.088,16.56 239.568,17.328 240.432,17.904 C241.2,18.384 243.264,19.392 246.624,20.88 C251.424,23.04 254.592,24.864 256.224,26.448 C258.144,28.368 259.056,30.768 259.056,33.744 C259.056,38.064 257.232,41.28 253.488,43.536 C250.416,45.36 246.528,46.272 241.728,46.272 C237.648,46.272 233.616,45.792 229.536,44.88 M187.536,45.552 L187.536,6.048 L200.352,6.048 L213.84,32.448 L213.84,6.048 L221.616,6.048 L221.616,45.552 L209.184,45.552 L195.36,18.72 L195.36,45.552 L187.536,45.552 Z M151.632,45.552 L151.632,6.048 L179.856,6.048 L179.856,13.152 L162.24,13.152 L162.24,22.08 L177.6,22.08 L177.6,28.608 L162.24,28.608 L162.24,37.968 L180.384,37.968 L180.384,45.504 L151.632,45.504 L151.632,45.552 Z M93.552,45.552 L93.552,6.048 L107.808,6.048 L117.744,31.296 L127.92,6.048 L141.504,6.048 L141.504,45.552 L131.088,45.552 L131.088,17.568 L119.472,45.888 L112.704,45.888 L101.376,17.568 L101.376,45.552 C101.376,45.552 93.552,45.552 93.552,45.552 Z M57.648,45.552 L57.648,6.048 L85.872,6.048 L85.872,13.152 L68.256,13.152 L68.256,22.08 L83.664,22.08 L83.664,28.608 L68.256,28.608 L68.256,37.968 L86.4,37.968 L86.4,45.504 C86.352,45.552 57.648,45.552 57.648,45.552 Z M36.528,45.552 L47.52,45.552 L47.52,6.048 L36.528,6.048 L36.528,45.552 Z M0.768,44.88 C0.768,37.104 0.768,37.104 0.768,37.104 C5.232,38.496 9.12,39.168 12.624,39.168 C17.28,39.168 19.68,37.92 19.68,35.424 C19.68,34.512 19.344,33.696 18.672,33.12 C17.904,32.448 16.128,31.488 13.2,30.288 C8.064,28.128 4.656,26.304 3.12,24.816 C1.008,22.848 0,20.352 0,17.28 C0,13.392 1.488,10.416 4.464,8.4 C7.344,6.336 11.184,5.328 15.888,5.328 C18.528,5.328 22.272,5.808 27.216,6.72 C27.216,14.256 27.216,14.256 27.216,14.256 C23.472,12.768 20.112,12 16.944,12 C12.576,12 10.32,13.248 10.32,15.648 C10.32,16.56 10.8,17.328 11.664,17.904 C12.432,18.384 14.496,19.392 17.808,20.88 C22.704,23.04 25.824,24.864 27.504,26.448 C29.328,28.368 30.336,30.768 30.336,33.744 C30.336,38.064 28.416,41.28 24.768,43.536 C21.696,45.36 17.808,46.272 13.008,46.272 C8.928,46.272 4.896,45.792 0.768,44.88" id="path6791_1_" fill="#0098A2"></path>
                    <path d="M431.28,28.464 C413.472,28.464 413.472,28.464 413.472,28.464 C413.376,30.768 413.472,32.352 413.472,33.168 C413.568,35.088 413.712,36.624 414.048,37.872 C414.768,41.184 417.36,43.488 421.44,43.488 C430.704,43.488 430.704,43.488 430.704,43.488 C430.704,45.408 430.704,45.408 430.704,45.408 C416.544,45.408 416.544,45.408 416.544,45.408 C413.808,45.408 411.408,44.592 409.344,42.912 C407.28,41.28 405.936,39.12 405.456,36.384 C405.12,34.32 404.976,31.584 405.12,28.416 C405.552,18.384 409.008,13.248 415.536,12.672 C416.448,12.672 417.696,12.528 419.424,12.528 C421.008,12.528 422.16,12.672 422.832,12.672 C428.832,13.392 431.664,18.624 431.28,28.464 M425.136,25.824 C425.232,24.096 425.136,22.656 425.136,21.6 C424.992,19.68 424.464,18.048 423.456,16.704 C422.448,15.312 421.152,14.64 419.424,14.64 C415.632,14.64 413.712,18.384 413.616,25.824 L425.136,25.824 L425.136,25.824 Z M438.048,45.456 C442.272,45.456 442.272,45.456 442.272,45.456 C443.328,45.456 443.328,45.456 443.328,45.456 C443.424,45.456 443.424,45.456 443.424,45.456 C444.768,45.456 444.768,45.456 444.768,45.456 C446.448,45.456 446.448,45.456 446.448,45.456 C455.232,45.552 456.96,41.088 456.528,36.864 C456.048,31.056 451.968,28.656 448.176,26.592 C444.72,24.288 440.88,22.272 441.648,18.912 C442.128,16.848 443.808,15.168 445.872,14.928 C446.88,14.784 447.456,14.688 448.704,14.688 C455.232,14.688 455.232,14.688 455.232,14.688 C456.576,14.688 456.576,14.688 456.576,14.688 C456.912,12.624 456.912,12.624 456.912,12.624 C455.088,12.624 455.088,12.624 455.088,12.624 C445.488,12.624 445.488,12.624 445.488,12.624 C437.616,12.624 434.976,17.328 434.976,21.744 C434.976,23.376 435.456,24.864 436.224,26.064 C439.296,32.256 448.896,32.448 448.224,38.976 C447.984,41.808 446.304,43.44 440.448,43.536 C433.92,43.536 433.92,43.536 433.92,43.536 C433.824,45.504 433.824,45.504 433.824,45.504 M486.816,45.456 C486.384,44.208 486.048,42.96 485.904,41.808 C485.808,41.568 485.808,41.328 485.808,41.04 C485.712,40.8 485.712,40.56 485.712,40.272 L485.712,40.272 C485.472,34.8 485.808,30.24 485.952,26.448 C486.096,23.808 486.192,21.648 486.192,19.728 L486.192,19.728 C486.096,17.664 485.712,15.84 484.704,14.592 C483.696,13.344 482.208,12.528 480,12.624 C464.352,12.528 464.352,12.528 464.352,12.528 C464.256,14.352 464.256,14.352 464.256,14.352 C474.096,14.352 474.096,14.352 474.096,14.352 L474.096,14.352 C476.4,14.352 477.648,15.36 478.224,16.896 C478.8,18.384 478.704,20.304 478.368,22.512 C478.272,22.992 478.272,22.992 478.272,22.992 C477.936,22.848 477.936,22.848 477.936,22.848 C472.896,22.944 468.912,23.52 465.744,24.816 C462.672,26.064 460.608,27.984 459.456,30.432 L459.456,30.432 C458.112,33.072 458.448,37.488 460.224,40.704 C460.56,41.376 460.944,41.952 461.376,42.432 C461.856,42.912 462.288,43.344 462.864,43.776 L462.864,43.776 C463.68,44.256 464.592,44.688 465.504,44.928 C467.904,45.696 472.944,45.36 475.2,45.024 C476.544,44.88 477.6,44.592 478.512,44.208 C479.184,43.968 479.184,43.968 479.184,43.968 C479.184,44.688 479.184,44.688 479.184,44.688 C479.184,45.36 479.184,45.36 479.184,45.36 M478.128,24.768 L478.128,24.768 C478.608,24.768 478.608,24.768 478.608,24.768 C478.608,25.344 478.608,25.344 478.608,25.344 C478.272,37.104 478.272,37.104 478.272,37.104 C478.272,38.256 477.936,39.168 477.36,40.08 C477.216,40.224 477.12,40.32 476.928,40.512 C476.832,40.656 476.688,40.848 476.496,40.944 C476.496,41.04 476.496,41.04 476.496,41.04 L476.496,41.04 C476.064,41.472 475.488,41.808 474.912,42.048 C474.816,42.048 474.672,42.144 474.576,42.144 C473.808,42.384 472.992,42.576 472.08,42.576 C470.592,42.576 469.44,42.336 468.624,41.76 C467.616,41.184 467.04,40.272 466.8,39.12 C466.08,36.048 466.224,32.256 467.808,29.424 C468.144,28.944 468.48,28.416 468.864,27.936 C469.296,27.456 469.776,27.024 470.352,26.688 L470.352,26.688 L470.352,26.688 L470.352,26.688 C471.264,26.208 472.272,25.776 473.328,25.44 C473.472,25.44 473.76,25.344 473.904,25.296 C475.248,24.912 476.64,24.768 478.128,24.768 M305.808,3.792 C323.52,3.744 323.52,3.744 323.52,3.744 C323.616,0 323.616,0 323.616,0 C303.648,0 303.648,0 303.648,0 C299.28,0 294.144,1.008 289.632,4.128 C288.816,4.704 287.904,5.376 287.136,6.192 C286.32,6.912 285.552,7.824 284.832,8.736 L284.832,8.832 C281.76,12.912 280.368,17.52 280.368,22.56 C280.368,23.568 280.464,24.528 280.512,25.536 C280.608,26.544 280.752,27.504 280.992,28.608 C281.424,31.104 282.24,33.312 283.296,35.376 C284.352,37.344 285.696,39.12 287.376,40.656 C289.344,42.384 291.84,44.112 293.904,44.784 C295.872,45.456 298.608,45.36 300.624,45.36 C300.528,45.36 317.856,45.456 323.664,45.36 C323.52,40.896 323.664,36.576 323.808,33.36 C323.952,30.864 324.048,28.704 323.952,26.976 L323.952,26.976 C323.808,25.008 323.376,23.232 322.32,22.032 C321.312,20.88 319.728,20.112 317.328,20.112 C315.072,20.112 315.072,20.112 315.072,20.112 C307.776,20.112 307.776,20.112 307.776,20.112 C307.776,21.84 307.776,21.84 307.776,21.84 C311.232,21.744 311.232,21.744 311.232,21.744 L311.232,21.744 C313.488,21.84 314.688,22.56 315.36,24 C315.936,25.248 316.032,26.88 315.936,28.944 C315.936,30.768 315.936,32.496 315.936,34.224 C315.936,35.136 315.936,37.296 315.936,39.504 C315.936,39.936 315.936,39.936 315.936,39.936 C315.504,39.936 315.504,39.936 315.504,39.936 C303.312,39.936 303.312,39.936 303.312,39.936 C302.832,39.936 302.832,39.936 302.832,39.936 L302.832,39.936 C302.016,39.936 302.016,39.936 302.016,39.936 L302.016,39.936 C301.776,39.936 301.44,39.936 301.104,39.84 C298.224,39.408 295.632,37.584 293.664,34.896 C291.696,32.256 290.448,28.704 290.112,24.72 C290.112,24 290.016,23.232 290.112,22.464 C290.256,14.832 292.848,8.544 298.08,5.568 C299.136,4.896 300.24,4.512 301.488,4.176 C302.736,3.84 304.032,3.696 305.472,3.696 C305.616,3.792 305.712,3.792 305.808,3.792 M284.832,8.88 C284.832,8.88 284.832,8.88 284.832,8.784 L284.832,8.88 Z M356.4,45.456 C355.968,44.112 355.68,42.96 355.488,41.808 C355.392,41.568 355.392,41.328 355.344,41.04 C355.344,40.8 355.344,40.56 355.344,40.272 L355.344,40.272 C355.008,34.8 355.2,30.24 355.344,26.448 C355.44,23.808 355.584,21.648 355.44,19.728 L355.44,19.728 C355.344,17.664 354.96,15.84 353.952,14.592 C352.944,13.344 351.456,12.528 349.152,12.624 C346.992,12.624 346.992,12.624 346.992,12.624 C333.504,12.624 333.504,12.624 333.504,12.624 C333.504,14.352 333.504,14.352 333.504,14.352 C343.344,14.352 343.344,14.352 343.344,14.352 L343.344,14.352 C345.648,14.352 346.896,15.36 347.472,16.896 C348.048,18.384 348.048,20.304 347.712,22.512 C347.712,22.992 347.712,22.992 347.712,22.992 C347.28,22.848 347.28,22.848 347.28,22.848 C342.288,22.944 338.256,23.52 335.184,24.816 C332.112,26.064 330.048,27.984 328.896,30.432 L328.896,30.432 C327.648,33.072 328.08,37.488 329.904,40.704 C330.24,41.376 330.672,41.952 331.056,42.432 C331.488,42.912 331.968,43.344 332.544,43.776 L332.544,43.776 C333.36,44.256 334.272,44.688 335.184,44.928 C337.584,45.696 342.624,45.408 344.88,45.024 C346.224,44.88 347.376,44.592 348.192,44.208 C348.864,43.968 348.864,43.968 348.864,43.968 C348.864,44.688 348.864,44.688 348.864,44.688 C348.96,45.36 348.96,45.36 348.96,45.36 C351.456,45.456 353.904,45.456 356.4,45.456 M347.376,24.768 L347.376,24.768 C347.952,24.768 347.952,24.768 347.952,24.768 C347.952,25.344 347.952,25.344 347.952,25.344 C347.808,37.104 347.808,37.104 347.808,37.104 C347.808,38.256 347.472,39.168 346.896,40.08 C346.8,40.224 346.656,40.32 346.56,40.512 C346.416,40.656 346.32,40.848 346.128,40.944 L346.128,40.944 C346.128,41.04 346.128,41.04 346.128,41.04 L346.128,41.04 L346.128,41.04 C345.648,41.472 345.12,41.808 344.544,42.048 C344.4,42.048 344.304,42.144 344.112,42.144 C343.44,42.384 342.624,42.576 341.712,42.576 C340.224,42.576 339.072,42.336 338.16,41.76 C337.248,41.184 336.672,40.272 336.336,39.12 C335.568,36.048 335.568,32.256 337.152,29.424 C337.488,28.944 337.824,28.416 338.208,27.936 C338.688,27.456 339.12,27.024 339.696,26.688 L339.696,26.688 L339.696,26.688 C340.608,26.208 341.616,25.776 342.576,25.44 C342.816,25.44 343.008,25.344 343.248,25.296 C344.544,24.912 345.984,24.768 347.376,24.768 M361.44,45.456 C361.872,34.608 361.776,23.376 361.2,12.576 C369.312,12.576 369.312,12.576 369.312,12.576 C369.552,17.232 369.552,17.232 369.552,17.232 C371.808,12.336 382.032,10.272 385.968,16.464 C387.024,13.728 390.048,12.384 394.992,12.576 C398.544,12.912 401.136,14.256 401.136,18.144 C400.992,38.688 400.992,38.688 400.992,38.688 C400.992,40.992 401.328,43.344 402.24,45.456 C393.936,45.456 393.936,45.456 393.936,45.456 C394.08,22.08 394.08,22.08 394.08,22.08 C394.176,18.288 392.256,16.704 389.52,16.8 C386.544,16.8 385.2,18.72 385.2,22.032 C385.296,45.456 385.296,45.456 385.296,45.456 C378,45.456 378,45.456 378,45.456 C377.904,22.032 377.904,22.032 377.904,22.032 C377.904,19.296 376.848,16.992 373.68,16.896 C370.848,16.896 369.12,18.72 369.36,22.272 C368.928,45.456 368.928,45.456 368.928,45.456" id="path6803_1_" fill="#3D3D3B"></path>
                    <path d="M153.264,78.048 C153.264,72.24 153.264,72.24 153.264,72.24 C155.232,72.24 155.232,72.24 155.232,72.24 C155.712,72.24 156,72.336 156.24,72.336 C156.48,72.432 156.72,72.48 156.96,72.672 C157.2,72.816 157.536,73.152 157.872,73.584 C158.208,74.016 158.64,74.592 159.12,75.312 C160.848,78.048 160.848,78.048 160.848,78.048 C163.008,78.048 163.008,78.048 163.008,78.048 C160.704,74.496 160.704,74.496 160.704,74.496 C160.272,73.824 159.792,73.248 159.312,72.768 C159.072,72.624 158.736,72.336 158.304,72.192 C159.552,72.048 160.464,71.616 161.04,70.944 C161.616,70.272 161.952,69.552 161.952,68.64 C161.952,67.872 161.808,67.248 161.376,66.672 C161.04,66.096 160.56,65.664 159.984,65.424 C159.408,65.184 158.496,65.088 157.344,65.088 C151.536,65.088 151.536,65.088 151.536,65.088 C151.536,78.096 151.536,78.096 151.536,78.096 L153.264,78.096 L153.264,78.048 Z M153.264,66.48 C157.392,66.48 157.392,66.48 157.392,66.48 C158.4,66.48 159.072,66.72 159.456,67.152 C159.936,67.488 160.128,67.968 160.128,68.64 C160.128,69.072 160.032,69.456 159.792,69.792 C159.648,70.128 159.216,70.368 158.784,70.56 C158.352,70.704 157.728,70.8 156.96,70.8 C153.216,70.8 153.216,70.8 153.216,70.8 L153.216,66.48 L153.264,66.48 Z M183.84,78.048 C183.84,76.464 183.84,76.464 183.84,76.464 C175.872,76.464 175.872,76.464 175.872,76.464 C175.872,72.096 175.872,72.096 175.872,72.096 C182.976,72.096 182.976,72.096 182.976,72.096 C182.976,70.608 182.976,70.608 182.976,70.608 C175.872,70.608 175.872,70.608 175.872,70.608 C175.872,66.624 175.872,66.624 175.872,66.624 C183.504,66.624 183.504,66.624 183.504,66.624 C183.504,65.04 183.504,65.04 183.504,65.04 C174.144,65.04 174.144,65.04 174.144,65.04 C174.144,78.048 174.144,78.048 174.144,78.048 L183.84,78.048 L183.84,78.048 Z M197.232,78.048 C197.232,67.872 197.232,67.872 197.232,67.872 C204.096,78.048 204.096,78.048 204.096,78.048 C205.824,78.048 205.824,78.048 205.824,78.048 C205.824,65.04 205.824,65.04 205.824,65.04 C204.144,65.04 204.144,65.04 204.144,65.04 C204.144,75.216 204.144,75.216 204.144,75.216 C197.376,65.04 197.376,65.04 197.376,65.04 C195.552,65.04 195.552,65.04 195.552,65.04 C195.552,78.048 195.552,78.048 195.552,78.048 L197.232,78.048 Z M227.904,78.048 C227.904,76.464 227.904,76.464 227.904,76.464 C219.936,76.464 219.936,76.464 219.936,76.464 C219.936,72.096 219.936,72.096 219.936,72.096 C227.136,72.096 227.136,72.096 227.136,72.096 C227.136,70.608 227.136,70.608 227.136,70.608 C219.936,70.608 219.936,70.608 219.936,70.608 C219.936,66.624 219.936,66.624 219.936,66.624 C227.616,66.624 227.616,66.624 227.616,66.624 C227.616,65.04 227.616,65.04 227.616,65.04 C218.16,65.04 218.16,65.04 218.16,65.04 C218.16,78.048 218.16,78.048 218.16,78.048 L227.904,78.048 L227.904,78.048 Z M243.792,78.048 C246.528,68.112 246.528,68.112 246.528,68.112 C246.624,67.68 246.768,67.2 246.96,66.624 C246.96,66.768 247.104,67.296 247.392,68.112 C250.128,78.048 250.128,78.048 250.128,78.048 C251.808,78.048 251.808,78.048 251.808,78.048 C255.36,65.04 255.36,65.04 255.36,65.04 C253.632,65.04 253.632,65.04 253.632,65.04 C251.568,73.392 251.568,73.392 251.568,73.392 C251.328,74.448 251.088,75.36 250.896,76.224 C250.752,74.832 250.416,73.248 249.888,71.664 C248.064,65.04 248.064,65.04 248.064,65.04 C246,65.04 246,65.04 246,65.04 C243.504,73.824 243.504,73.824 243.504,73.824 C243.408,74.064 243.264,74.832 242.928,76.224 C242.784,75.312 242.592,74.496 242.352,73.584 C240.384,65.04 240.384,65.04 240.384,65.04 C238.656,65.04 238.656,65.04 238.656,65.04 C242.112,78.048 242.112,78.048 242.112,78.048 L243.792,78.048 L243.792,78.048 Z M266.064,78.048 C267.456,74.064 267.456,74.064 267.456,74.064 C272.928,74.064 272.928,74.064 272.928,74.064 C274.416,78.048 274.416,78.048 274.416,78.048 C276.384,78.048 276.384,78.048 276.384,78.048 C271.008,65.04 271.008,65.04 271.008,65.04 C269.184,65.04 269.184,65.04 269.184,65.04 C264.24,78.048 264.24,78.048 264.24,78.048 L266.064,78.048 L266.064,78.048 Z M269.376,68.976 C269.712,68.16 269.952,67.344 270.096,66.48 C270.24,67.152 270.576,68.064 271.008,69.12 C272.352,72.768 272.352,72.768 272.352,72.768 C267.984,72.768 267.984,72.768 267.984,72.768 L269.376,68.976 Z M292.08,78.048 C292.896,78.048 293.664,77.952 294.144,77.808 C294.72,77.712 295.2,77.472 295.632,77.232 C295.968,76.896 296.304,76.464 296.544,75.984 C296.784,75.504 296.976,74.928 296.976,74.352 C296.976,73.536 296.736,72.864 296.304,72.384 C295.872,71.808 295.296,71.376 294.48,71.232 C295.152,70.896 295.536,70.464 295.872,69.984 C296.112,69.504 296.304,68.976 296.304,68.4 C296.304,67.824 296.16,67.248 295.824,66.768 C295.488,66.192 295.008,65.76 294.432,65.52 C293.856,65.28 293.04,65.088 292.032,65.088 C287.136,65.088 287.136,65.088 287.136,65.088 C287.136,78.096 287.136,78.096 287.136,78.096 L292.08,78.048 L292.08,78.048 Z M288.816,66.624 C291.36,66.624 291.36,66.624 291.36,66.624 C292.368,66.624 293.04,66.624 293.328,66.768 C293.76,66.864 294,67.104 294.24,67.44 C294.384,67.776 294.576,68.112 294.576,68.592 C294.576,69.024 294.432,69.408 294.24,69.648 C294,69.984 293.664,70.224 293.232,70.32 C292.896,70.416 292.32,70.464 291.552,70.464 C288.72,70.464 288.72,70.464 288.72,70.464 L288.72,66.624 L288.816,66.624 Z M288.816,72.096 C291.792,72.096 291.792,72.096 291.792,72.096 C292.608,72.096 293.28,72.096 293.712,72.24 C294.192,72.384 294.528,72.672 294.768,73.008 C295.008,73.44 295.104,73.824 295.104,74.352 C295.104,74.784 295.008,75.12 294.864,75.408 C294.72,75.744 294.432,75.888 294.192,76.08 C293.952,76.224 293.616,76.416 293.184,76.512 C293.04,76.512 292.608,76.512 292.032,76.512 C288.816,76.512 288.816,76.512 288.816,76.512 L288.816,72.096 L288.816,72.096 Z M316.8,78.048 C316.8,76.464 316.8,76.464 316.8,76.464 C310.32,76.464 310.32,76.464 310.32,76.464 C310.32,65.04 310.32,65.04 310.32,65.04 C308.592,65.04 308.592,65.04 308.592,65.04 C308.592,78.048 308.592,78.048 308.592,78.048 L316.8,78.048 L316.8,78.048 Z M338.016,78.048 C338.016,76.464 338.016,76.464 338.016,76.464 C330,76.464 330,76.464 330,76.464 C330,72.096 330,72.096 330,72.096 C337.2,72.096 337.2,72.096 337.2,72.096 C337.2,70.608 337.2,70.608 337.2,70.608 C330,70.608 330,70.608 330,70.608 C330,66.624 330,66.624 330,66.624 C337.68,66.624 337.68,66.624 337.68,66.624 C337.68,65.04 337.68,65.04 337.68,65.04 C328.32,65.04 328.32,65.04 328.32,65.04 C328.32,78.048 328.32,78.048 328.32,78.048 L338.016,78.048 L338.016,78.048 Z M374.064,78.048 C374.064,76.464 374.064,76.464 374.064,76.464 C366.096,76.464 366.096,76.464 366.096,76.464 C366.096,72.096 366.096,72.096 366.096,72.096 C373.2,72.096 373.2,72.096 373.2,72.096 C373.2,70.608 373.2,70.608 373.2,70.608 C366.096,70.608 366.096,70.608 366.096,70.608 C366.096,66.624 366.096,66.624 366.096,66.624 C373.728,66.624 373.728,66.624 373.728,66.624 C373.728,65.04 373.728,65.04 373.728,65.04 C364.368,65.04 364.368,65.04 364.368,65.04 C364.368,78.048 364.368,78.048 364.368,78.048 L374.064,78.048 L374.064,78.048 Z M387.456,78.048 C387.456,67.872 387.456,67.872 387.456,67.872 C394.32,78.048 394.32,78.048 394.32,78.048 C396.048,78.048 396.048,78.048 396.048,78.048 C396.048,65.04 396.048,65.04 396.048,65.04 C394.368,65.04 394.368,65.04 394.368,65.04 C394.368,75.216 394.368,75.216 394.368,75.216 C387.6,65.04 387.6,65.04 387.6,65.04 C385.776,65.04 385.776,65.04 385.776,65.04 C385.776,78.048 385.776,78.048 385.776,78.048 L387.456,78.048 L387.456,78.048 Z M418.08,78.048 C418.08,76.464 418.08,76.464 418.08,76.464 C410.112,76.464 410.112,76.464 410.112,76.464 C410.112,72.096 410.112,72.096 410.112,72.096 C417.312,72.096 417.312,72.096 417.312,72.096 C417.312,70.608 417.312,70.608 417.312,70.608 C410.112,70.608 410.112,70.608 410.112,70.608 C410.112,66.624 410.112,66.624 410.112,66.624 C417.792,66.624 417.792,66.624 417.792,66.624 C417.792,65.04 417.792,65.04 417.792,65.04 C408.336,65.04 408.336,65.04 408.336,65.04 C408.336,78.048 408.336,78.048 408.336,78.048 L418.08,78.048 L418.08,78.048 Z M431.664,78.048 C431.664,72.24 431.664,72.24 431.664,72.24 C433.632,72.24 433.632,72.24 433.632,72.24 C434.112,72.24 434.4,72.336 434.64,72.336 C434.88,72.432 435.12,72.48 435.408,72.672 C435.648,72.816 435.984,73.152 436.32,73.584 C436.656,74.016 437.088,74.592 437.568,75.312 C439.296,78.048 439.296,78.048 439.296,78.048 C441.456,78.048 441.456,78.048 441.456,78.048 C439.152,74.496 439.152,74.496 439.152,74.496 C438.72,73.824 438.24,73.248 437.76,72.768 C437.52,72.624 437.184,72.336 436.752,72.192 C438,72.048 438.912,71.616 439.488,70.944 C440.064,70.272 440.4,69.552 440.4,68.64 C440.4,67.872 440.256,67.248 439.824,66.672 C439.488,66.096 439.008,65.664 438.432,65.424 C437.856,65.184 436.944,65.088 435.792,65.088 C429.984,65.088 429.984,65.088 429.984,65.088 C429.984,78.096 429.984,78.096 429.984,78.096 L431.664,78.096 L431.664,78.048 Z M431.664,66.48 C435.792,66.48 435.792,66.48 435.792,66.48 C436.704,66.48 437.472,66.72 437.856,67.152 C438.336,67.488 438.528,67.968 438.528,68.64 C438.528,69.072 438.432,69.456 438.192,69.792 C437.952,70.128 437.616,70.368 437.184,70.56 C436.752,70.704 436.128,70.8 435.36,70.8 C431.616,70.8 431.616,70.8 431.616,70.8 L431.616,66.48 L431.664,66.48 Z M462.384,72.912 C462.384,75.408 462.384,75.408 462.384,75.408 C462.048,75.744 461.472,75.984 460.752,76.32 C460.08,76.56 459.36,76.752 458.592,76.752 C457.776,76.752 456.96,76.608 456.192,76.176 C455.424,75.84 454.848,75.264 454.464,74.448 C454.032,73.68 453.888,72.72 453.888,71.568 C453.888,70.656 454.032,69.744 454.368,68.928 C454.512,68.496 454.8,68.112 455.136,67.68 C455.568,67.248 455.952,66.912 456.528,66.768 C457.104,66.528 457.776,66.336 458.592,66.336 C459.264,66.336 459.84,66.48 460.32,66.672 C460.896,66.912 461.328,67.248 461.568,67.584 C461.904,68.016 462.144,68.496 462.336,69.168 C463.92,68.736 463.92,68.736 463.92,68.736 C463.68,67.824 463.344,67.152 462.912,66.576 C462.48,66.096 461.904,65.664 461.184,65.328 C460.368,64.992 459.504,64.848 458.592,64.848 C457.248,64.848 456.096,65.184 455.136,65.664 C454.128,66.144 453.408,67.008 452.88,68.16 C452.304,69.216 452.064,70.416 452.064,71.616 C452.064,72.96 452.304,74.112 452.88,75.072 C453.36,76.128 454.224,76.896 455.184,77.472 C456.24,77.952 457.44,78.288 458.64,78.288 C459.648,78.288 460.56,78.144 461.472,77.808 C462.384,77.376 463.2,76.896 464.064,76.224 C464.064,71.424 464.064,71.424 464.064,71.424 C458.592,71.424 458.592,71.424 458.592,71.424 C458.592,72.912 458.592,72.912 458.592,72.912 C458.592,72.912 462.384,72.912 462.384,72.912 Z M481.44,78.048 C481.44,72.576 481.44,72.576 481.44,72.576 C486.672,65.04 486.672,65.04 486.672,65.04 C484.608,65.04 484.608,65.04 484.608,65.04 C482.112,68.832 482.112,68.832 482.112,68.832 C481.536,69.744 481.104,70.464 480.72,71.136 C480.288,70.368 479.904,69.648 479.376,68.88 C476.832,64.992 476.832,64.992 476.832,64.992 C474.768,64.992 474.768,64.992 474.768,64.992 C479.76,72.528 479.76,72.528 479.76,72.528 C479.76,78 479.76,78 479.76,78 L481.44,78 L481.44,78.048 Z" id="path6805_1_" fill="#3D3D3B"></path>
                </g>
            </g>
        </g>
    </g>
</svg>