<?xml version="1.0" encoding="UTF-8"?>
<svg width="203px" height="20px" viewBox="0 0 203 20" version="1.1" xmlns="http://www.w3.org/2000/svg" xmlns:xlink="http://www.w3.org/1999/xlink">
    <!-- Generator: Sketch 63.1 (92452) - https://sketch.com -->
    <title>logo</title>
    <desc>Created with Sketch.</desc>
    <g id="Symbols" stroke="none" stroke-width="1" fill="none" fill-rule="evenodd">
        <g id="Header" transform="translate(-19.000000, -19.000000)" fill="#FFFFFF" fill-rule="nonzero">
            <g id="HEADER">
                <g id="logo" transform="translate(19.000000, 19.000000)">
                    <path d="M95.64,18.7 C95.64,15.46 95.64,15.46 95.64,15.46 C97.46,16.04 99.1,16.32 100.54,16.32 C102.5,16.32 103.48,15.8 103.48,14.76 C103.48,14.38 103.34,14.04 103.06,13.8 C102.76,13.52 102.02,13.12 100.78,12.62 C98.64,11.76 97.22,11 96.58,10.34 C95.72,9.52 95.3,8.48 95.3,7.2 C95.3,5.58 95.92,4.34 97.16,3.5 C98.36,2.64 99.96,2.22 101.92,2.22 C103.06,2.22 104.48,2.4 106.24,2.74 C106.66,2.8 106.66,2.8 106.66,2.8 C106.66,5.94 106.66,5.94 106.66,5.94 C105.14,5.32 103.7,5 102.38,5 C100.56,5 99.62,5.52 99.62,6.52 C99.62,6.9 99.82,7.22 100.18,7.46 C100.5,7.66 101.36,8.08 102.76,8.7 C104.76,9.6 106.08,10.36 106.76,11.02 C107.56,11.82 107.94,12.82 107.94,14.06 C107.94,15.86 107.18,17.2 105.62,18.14 C104.34,18.9 102.72,19.28 100.72,19.28 C99.02,19.28 97.34,19.08 95.64,18.7 M78.14,18.98 L78.14,2.52 L83.48,2.52 L89.1,13.52 L89.1,2.52 L92.34,2.52 L92.34,18.98 L87.16,18.98 L81.4,7.8 L81.4,18.98 L78.14,18.98 Z M63.18,18.98 L63.18,2.52 L74.94,2.52 L74.94,5.48 L67.6,5.48 L67.6,9.2 L74,9.2 L74,11.92 L67.6,11.92 L67.6,15.82 L75.16,15.82 L75.16,18.96 L63.18,18.96 L63.18,18.98 Z M38.98,18.98 L38.98,2.52 L44.92,2.52 L49.06,13.04 L53.3,2.52 L58.96,2.52 L58.96,18.98 L54.62,18.98 L54.62,7.32 L49.78,19.12 L46.96,19.12 L42.24,7.32 L42.24,18.98 C42.24,18.98 38.98,18.98 38.98,18.98 Z M24.02,18.98 L24.02,2.52 L35.78,2.52 L35.78,5.48 L28.44,5.48 L28.44,9.2 L34.86,9.2 L34.86,11.92 L28.44,11.92 L28.44,15.82 L36,15.82 L36,18.96 C35.98,18.98 24.02,18.98 24.02,18.98 Z M15.22,18.98 L19.8,18.98 L19.8,2.52 L15.22,2.52 L15.22,18.98 Z M0.32,18.7 C0.32,15.46 0.32,15.46 0.32,15.46 C2.18,16.04 3.8,16.32 5.26,16.32 C7.2,16.32 8.2,15.8 8.2,14.76 C8.2,14.38 8.06,14.04 7.78,13.8 C7.46,13.52 6.72,13.12 5.5,12.62 C3.36,11.72 1.94,10.96 1.3,10.34 C0.42,9.52 0,8.48 0,7.2 C0,5.58 0.62,4.34 1.86,3.5 C3.06,2.64 4.66,2.22 6.62,2.22 C7.72,2.22 9.28,2.42 11.34,2.8 C11.34,5.94 11.34,5.94 11.34,5.94 C9.78,5.32 8.38,5 7.06,5 C5.24,5 4.3,5.52 4.3,6.52 C4.3,6.9 4.5,7.22 4.86,7.46 C5.18,7.66 6.04,8.08 7.42,8.7 C9.46,9.6 10.76,10.36 11.46,11.02 C12.22,11.82 12.64,12.82 12.64,14.06 C12.64,15.86 11.84,17.2 10.32,18.14 C9.04,18.9 7.42,19.28 5.42,19.28 C3.72,19.28 2.04,19.08 0.32,18.7" id="path6791_1_"></path>
                    <path d="M179.7,11.86 C172.28,11.86 172.28,11.86 172.28,11.86 C172.24,12.82 172.28,13.48 172.28,13.82 C172.32,14.62 172.38,15.26 172.52,15.78 C172.82,17.16 173.9,18.12 175.6,18.12 C179.46,18.12 179.46,18.12 179.46,18.12 C179.46,18.92 179.46,18.92 179.46,18.92 C173.56,18.92 173.56,18.92 173.56,18.92 C172.42,18.92 171.42,18.58 170.56,17.88 C169.7,17.2 169.14,16.3 168.94,15.16 C168.8,14.3 168.74,13.16 168.8,11.84 C168.98,7.66 170.42,5.52 173.14,5.28 C173.52,5.28 174.04,5.22 174.76,5.22 C175.42,5.22 175.9,5.28 176.18,5.28 C178.68,5.58 179.86,7.76 179.7,11.86 M177.14,10.76 C177.18,10.04 177.14,9.44 177.14,9 C177.08,8.2 176.86,7.52 176.44,6.96 C176.02,6.38 175.48,6.1 174.76,6.1 C173.18,6.1 172.38,7.66 172.34,10.76 L177.14,10.76 L177.14,10.76 Z M182.52,18.94 C184.28,18.94 184.28,18.94 184.28,18.94 C184.72,18.94 184.72,18.94 184.72,18.94 C184.76,18.94 184.76,18.94 184.76,18.94 C185.32,18.94 185.32,18.94 185.32,18.94 C186.02,18.94 186.02,18.94 186.02,18.94 C189.68,18.98 190.4,17.12 190.22,15.36 C190.02,12.94 188.32,11.94 186.74,11.08 C185.3,10.12 183.7,9.28 184.02,7.88 C184.22,7.02 184.92,6.32 185.78,6.22 C186.2,6.16 186.44,6.12 186.96,6.12 C189.68,6.12 189.68,6.12 189.68,6.12 C190.24,6.12 190.24,6.12 190.24,6.12 C190.38,5.26 190.38,5.26 190.38,5.26 C189.62,5.26 189.62,5.26 189.62,5.26 C185.62,5.26 185.62,5.26 185.62,5.26 C182.34,5.26 181.24,7.22 181.24,9.06 C181.24,9.74 181.44,10.36 181.76,10.86 C183.04,13.44 187.04,13.52 186.76,16.24 C186.66,17.42 185.96,18.1 183.52,18.14 C180.8,18.14 180.8,18.14 180.8,18.14 C180.76,18.96 180.76,18.96 180.76,18.96 M202.84,18.94 C202.66,18.42 202.52,17.9 202.46,17.42 C202.42,17.32 202.42,17.22 202.42,17.1 C202.38,17 202.38,16.9 202.38,16.78 L202.38,16.78 C202.28,14.5 202.42,12.6 202.48,11.02 C202.54,9.92 202.58,9.02 202.58,8.22 L202.58,8.22 C202.54,7.36 202.38,6.6 201.96,6.08 C201.54,5.56 200.92,5.22 200,5.26 C193.48,5.22 193.48,5.22 193.48,5.22 C193.44,5.98 193.44,5.98 193.44,5.98 C197.54,5.98 197.54,5.98 197.54,5.98 L197.54,5.98 C198.5,5.98 199.02,6.4 199.26,7.04 C199.5,7.66 199.46,8.46 199.32,9.38 C199.28,9.58 199.28,9.58 199.28,9.58 C199.14,9.52 199.14,9.52 199.14,9.52 C197.04,9.56 195.38,9.8 194.06,10.34 C192.78,10.86 191.92,11.66 191.44,12.68 L191.44,12.68 C190.88,13.78 191.02,15.62 191.76,16.96 C191.9,17.24 192.06,17.48 192.24,17.68 C192.44,17.88 192.62,18.06 192.86,18.24 L192.86,18.24 C193.2,18.44 193.58,18.62 193.96,18.72 C194.96,19.04 197.06,18.9 198,18.76 C198.56,18.7 199,18.58 199.38,18.42 C199.66,18.32 199.66,18.32 199.66,18.32 C199.66,18.62 199.66,18.62 199.66,18.62 C199.66,18.9 199.66,18.9 199.66,18.9 M199.22,10.32 L199.22,10.32 C199.42,10.32 199.42,10.32 199.42,10.32 C199.42,10.56 199.42,10.56 199.42,10.56 C199.28,15.46 199.28,15.46 199.28,15.46 C199.28,15.94 199.14,16.32 198.9,16.7 C198.84,16.76 198.8,16.8 198.72,16.88 C198.68,16.94 198.62,17.02 198.54,17.06 C198.54,17.1 198.54,17.1 198.54,17.1 L198.54,17.1 C198.36,17.28 198.12,17.42 197.88,17.52 C197.84,17.52 197.78,17.56 197.74,17.56 C197.42,17.66 197.08,17.74 196.7,17.74 C196.08,17.74 195.6,17.64 195.26,17.4 C194.84,17.16 194.6,16.78 194.5,16.3 C194.2,15.02 194.26,13.44 194.92,12.26 C195.06,12.06 195.2,11.84 195.36,11.64 C195.54,11.44 195.74,11.26 195.98,11.12 L195.98,11.12 L195.98,11.12 L195.98,11.12 C196.36,10.92 196.78,10.74 197.22,10.6 C197.28,10.6 197.4,10.56 197.46,10.54 C198.02,10.38 198.6,10.32 199.22,10.32 M127.42,1.58 C134.8,1.56 134.8,1.56 134.8,1.56 C134.84,0 134.84,0 134.84,0 C126.52,0 126.52,0 126.52,0 C124.7,0 122.56,0.42 120.68,1.72 C120.34,1.96 119.96,2.24 119.64,2.58 C119.3,2.88 118.98,3.26 118.68,3.64 L118.68,3.68 C117.4,5.38 116.82,7.3 116.82,9.4 C116.82,9.82 116.86,10.22 116.88,10.64 C116.92,11.06 116.98,11.46 117.08,11.92 C117.26,12.96 117.6,13.88 118.04,14.74 C118.48,15.56 119.04,16.3 119.74,16.94 C120.56,17.66 121.6,18.38 122.46,18.66 C123.28,18.94 124.42,18.9 125.26,18.9 C125.22,18.9 132.44,18.94 134.86,18.9 C134.8,17.04 134.86,15.24 134.92,13.9 C134.98,12.86 135.02,11.96 134.98,11.24 L134.98,11.24 C134.92,10.42 134.74,9.68 134.3,9.18 C133.88,8.7 133.22,8.38 132.22,8.38 C131.28,8.38 131.28,8.38 131.28,8.38 C128.24,8.38 128.24,8.38 128.24,8.38 C128.24,9.1 128.24,9.1 128.24,9.1 C129.68,9.06 129.68,9.06 129.68,9.06 L129.68,9.06 C130.62,9.1 131.12,9.4 131.4,10 C131.64,10.52 131.68,11.2 131.64,12.06 C131.64,12.82 131.64,13.54 131.64,14.26 C131.64,14.64 131.64,15.54 131.64,16.46 C131.64,16.64 131.64,16.64 131.64,16.64 C131.46,16.64 131.46,16.64 131.46,16.64 C126.38,16.64 126.38,16.64 126.38,16.64 C126.18,16.64 126.18,16.64 126.18,16.64 L126.18,16.64 C125.84,16.64 125.84,16.64 125.84,16.64 L125.84,16.64 C125.74,16.64 125.6,16.64 125.46,16.6 C124.26,16.42 123.18,15.66 122.36,14.54 C121.54,13.44 121.02,11.96 120.88,10.3 C120.88,10 120.84,9.68 120.88,9.36 C120.94,6.18 122.02,3.56 124.2,2.32 C124.64,2.04 125.1,1.88 125.62,1.74 C126.14,1.6 126.68,1.54 127.28,1.54 C127.34,1.58 127.38,1.58 127.42,1.58 M118.68,3.7 C118.68,3.7 118.68,3.7 118.68,3.66 L118.68,3.7 Z M148.5,18.94 C148.32,18.38 148.2,17.9 148.12,17.42 C148.08,17.32 148.08,17.22 148.06,17.1 C148.06,17 148.06,16.9 148.06,16.78 L148.06,16.78 C147.92,14.5 148,12.6 148.06,11.02 C148.1,9.92 148.16,9.02 148.1,8.22 L148.1,8.22 C148.06,7.36 147.9,6.6 147.48,6.08 C147.06,5.56 146.44,5.22 145.48,5.26 C144.58,5.26 144.58,5.26 144.58,5.26 C138.96,5.26 138.96,5.26 138.96,5.26 C138.96,5.98 138.96,5.98 138.96,5.98 C143.06,5.98 143.06,5.98 143.06,5.98 L143.06,5.98 C144.02,5.98 144.54,6.4 144.78,7.04 C145.02,7.66 145.02,8.46 144.88,9.38 C144.88,9.58 144.88,9.58 144.88,9.58 C144.7,9.52 144.7,9.52 144.7,9.52 C142.62,9.56 140.94,9.8 139.66,10.34 C138.38,10.86 137.52,11.66 137.04,12.68 L137.04,12.68 C136.52,13.78 136.7,15.62 137.46,16.96 C137.6,17.24 137.78,17.48 137.94,17.68 C138.12,17.88 138.32,18.06 138.56,18.24 L138.56,18.24 C138.9,18.44 139.28,18.62 139.66,18.72 C140.66,19.04 142.76,18.92 143.7,18.76 C144.26,18.7 144.74,18.58 145.08,18.42 C145.36,18.32 145.36,18.32 145.36,18.32 C145.36,18.62 145.36,18.62 145.36,18.62 C145.4,18.9 145.4,18.9 145.4,18.9 C146.44,18.94 147.46,18.94 148.5,18.94 M144.74,10.32 L144.74,10.32 C144.98,10.32 144.98,10.32 144.98,10.32 C144.98,10.56 144.98,10.56 144.98,10.56 C144.92,15.46 144.92,15.46 144.92,15.46 C144.92,15.94 144.78,16.32 144.54,16.7 C144.5,16.76 144.44,16.8 144.4,16.88 C144.34,16.94 144.3,17.02 144.22,17.06 L144.22,17.06 C144.22,17.1 144.22,17.1 144.22,17.1 L144.22,17.1 L144.22,17.1 C144.02,17.28 143.8,17.42 143.56,17.52 C143.5,17.52 143.46,17.56 143.38,17.56 C143.1,17.66 142.76,17.74 142.38,17.74 C141.76,17.74 141.28,17.64 140.9,17.4 C140.52,17.16 140.28,16.78 140.14,16.3 C139.82,15.02 139.82,13.44 140.48,12.26 C140.62,12.06 140.76,11.84 140.92,11.64 C141.12,11.44 141.3,11.26 141.54,11.12 L141.54,11.12 L141.54,11.12 C141.92,10.92 142.34,10.74 142.74,10.6 C142.84,10.6 142.92,10.56 143.02,10.54 C143.56,10.38 144.16,10.32 144.74,10.32 M150.6,18.94 C150.78,14.42 150.74,9.74 150.5,5.24 C153.88,5.24 153.88,5.24 153.88,5.24 C153.98,7.18 153.98,7.18 153.98,7.18 C154.92,5.14 159.18,4.28 160.82,6.86 C161.26,5.72 162.52,5.16 164.58,5.24 C166.06,5.38 167.14,5.94 167.14,7.56 C167.08,16.12 167.08,16.12 167.08,16.12 C167.08,17.08 167.22,18.06 167.6,18.94 C164.14,18.94 164.14,18.94 164.14,18.94 C164.2,9.2 164.2,9.2 164.2,9.2 C164.24,7.62 163.44,6.96 162.3,7 C161.06,7 160.5,7.8 160.5,9.18 C160.54,18.94 160.54,18.94 160.54,18.94 C157.5,18.94 157.5,18.94 157.5,18.94 C157.46,9.18 157.46,9.18 157.46,9.18 C157.46,8.04 157.02,7.08 155.7,7.04 C154.52,7.04 153.8,7.8 153.9,9.28 C153.72,18.94 153.72,18.94 153.72,18.94" id="path6803_1_"></path>
                </g>
            </g>
        </g>
    </g>
</svg>