<svg id="Layer_1" data-name="Layer 1" xmlns="http://www.w3.org/2000/svg" width="124" height="124" viewBox="0 0 124 124"><defs><style>.cls-1{fill:#312050;}</style></defs><path class="cls-1" d="M4.28,10.23A2.74,2.74,0,0,1,7,7.35H86.36a2.87,2.87,0,0,1,2.88,2.88v5.92a2.74,2.74,0,0,1-2.88,2.72H52.76v97.92A2.48,2.48,0,0,1,50,119.36H43.32a2.36,2.36,0,0,1-2.56-2.57V18.87H7a2.6,2.6,0,0,1-2.72-2.72Z"/><path class="cls-1" d="M112.45,118.79c-19,0-22.24-8.2-22.24-24.46V58.88H79.51a2.15,2.15,0,0,1-2.22-2.36V51.79a2.27,2.27,0,0,1,2.22-2.5c7.37,0,11-1.67,11-10.42V33.72a2.27,2.27,0,0,1,2.23-2.5h5.56a2.37,2.37,0,0,1,2.36,2.5V49.29h15.71a2.37,2.37,0,0,1,2.36,2.5v4.73a2.26,2.26,0,0,1-2.36,2.36H100.64V93.36c0,12.37,1.39,15.7,12.93,15.7h2.78a2.38,2.38,0,0,1,2.36,2.51v5a2.15,2.15,0,0,1-2.36,2.22Z"/></svg>