<?xml version="1.0" encoding="UTF-8"?>
<svg width="152px" height="152px" viewBox="0 0 152 152" version="1.1" xmlns="http://www.w3.org/2000/svg" xmlns:xlink="http://www.w3.org/1999/xlink">
    <!-- Generator: Sketch 63.1 (92452) - https://sketch.com -->
    <title>hero.brand</title>
    <desc>Created with Sketch.</desc>
    <g id="Design-System" stroke="none" stroke-width="1" fill="none" fill-rule="evenodd">
        <g id="Dashboard" transform="translate(-619.000000, -230.000000)">
            <g id="hero.brand" transform="translate(619.000000, 230.000000)">
                <path d="M62.16,40.68 C62.4,40.44 62.7,40.32 63,40.32 C63.33,40.32 63.63,40.44 63.84,40.68 L88.53,65.37 L129.48,24.42 C115.95,10.29 96.9,1.5 75.81,1.5 C34.77,1.5 1.5,34.77 1.5,75.81 C1.5,83.52 2.67,90.96 4.86,97.95 L62.16,40.68 Z" id="Path"></path>
                <path d="M138.66,115.47 C145.92,103.98 150.12,90.39 150.12,75.81 C150.12,62.37 146.55,49.74 140.31,38.85 L101.16,78 L138.66,115.47 Z" id="Path"></path>
                <path d="M94.29,84.87 C94.29,84.87 94.26,84.9 94.26,84.9 C94.23,84.93 94.2,84.93 94.17,84.96 C94.11,84.99 94.08,85.02 94.02,85.05 C94.02,85.05 93.99,85.08 93.99,85.08 L82.26,91.32 L70.53,97.56 C70.35,97.65 70.17,97.71 69.96,97.71 C69.66,97.71 69.33,97.59 69.12,97.35 C68.76,96.99 68.67,96.42 68.91,95.94 C68.61,86.46 60.81,78.84 51.27,78.84 C41.55,78.84 33.63,86.76 33.63,96.48 C33.63,106.2 41.55,114.12 51.27,114.12 C51.69,114.12 52.02,114.45 52.02,114.87 C52.02,115.29 51.69,115.62 51.27,115.62 C40.71,115.62 32.13,107.04 32.13,96.48 C32.13,85.92 40.71,77.34 51.27,77.34 C60.81,77.34 68.76,84.36 70.2,93.51 L75.18,84.18 C75.18,84.18 75.18,84.18 75.18,84.18 L81.42,72.45 C81.42,72.45 81.45,72.42 81.45,72.42 C81.48,72.36 81.51,72.33 81.54,72.27 C81.57,72.24 81.57,72.21 81.6,72.21 C81.6,72.21 81.63,72.18 81.63,72.18 L86.82,66.99 L63,43.2 L5.7,100.5 C15.9,129.42 43.44,150.12 75.81,150.12 C101.4,150.12 123.93,137.19 137.31,117.54 L99.48,79.68 L94.29,84.87 Z M90.87,127.38 C90.87,127.8 90.54,128.13 90.12,128.13 L77.43,128.13 C77.01,128.13 76.68,127.8 76.68,127.38 C76.68,126.96 77.01,126.63 77.43,126.63 L89.37,126.63 L89.37,103.23 L58.56,103.23 L58.56,115.77 L68.79,132.15 L47.46,132.15 L57.09,116.01 L57.09,102.45 C57.09,102.03 57.42,101.7 57.84,101.7 L90.15,101.7 C90.57,101.7 90.9,102.03 90.9,102.45 L90.9,127.38 L90.87,127.38 Z M112.5,110.64 C112.8,110.34 113.28,110.34 113.55,110.64 C113.85,110.94 113.85,111.42 113.55,111.69 L107.37,117.9 L113.55,124.08 C113.85,124.38 113.85,124.86 113.55,125.13 C113.4,125.28 113.22,125.34 113.01,125.34 C112.83,125.34 112.62,125.28 112.47,125.13 L106.29,118.95 L100.11,125.13 C99.96,125.28 99.78,125.34 99.57,125.34 C99.39,125.34 99.18,125.28 99.03,125.13 C98.73,124.83 98.73,124.35 99.03,124.08 L105.21,117.9 L99.03,111.72 C98.73,111.42 98.73,110.94 99.03,110.67 C99.33,110.37 99.81,110.37 100.08,110.67 L106.26,116.85 L112.5,110.64 Z" id="Shape" fill="#FFFFFF" fill-rule="nonzero"></path>
                <path d="M70.23,93.57 C68.79,84.42 60.87,77.4 51.3,77.4 C40.74,77.4 32.16,85.98 32.16,96.54 C32.16,107.1 40.74,115.68 51.3,115.68 C51.72,115.68 52.05,115.35 52.05,114.93 C52.05,114.51 51.72,114.18 51.3,114.18 C41.58,114.18 33.66,106.26 33.66,96.54 C33.66,86.82 41.58,78.9 51.3,78.9 C60.84,78.9 68.64,86.52 68.94,96 C68.94,96 68.94,96 68.94,96 L70.23,93.57 Z" id="Path" fill="#99DFDE" fill-rule="nonzero"></path>
                <path d="M90.12,101.73 L57.81,101.73 C57.39,101.73 57.06,102.06 57.06,102.48 L57.06,116.04 L57.87,114.69 L58.56,115.8 L58.56,103.26 L89.37,103.26 L89.37,126.66 L77.43,126.66 C77.01,126.66 76.68,126.99 76.68,127.41 C76.68,127.83 77.01,128.16 77.43,128.16 L90.12,128.16 C90.54,128.16 90.87,127.83 90.87,127.41 L90.87,102.51 C90.87,102.06 90.54,101.73 90.12,101.73 Z" id="Path" fill="#99DFDE" fill-rule="nonzero"></path>
                <path d="M84.21,73.08 L93.45,82.32 L139.02,36.75 C136.68,33 134.04,29.46 131.1,26.19 L84.21,73.08 Z" id="Path" fill="#99DFDE" fill-rule="nonzero"></path>
                <polygon id="Path" fill="#FFFFFF" fill-rule="nonzero" points="91.44 83.73 82.8 75.09 77.73 84.57 81.96 88.8"></polygon>
                <polygon id="Path" fill="#99DFDE" fill-rule="nonzero" points="76.56 86.79 72.93 93.6 79.74 89.97"></polygon>
                <polygon id="Path" fill="#99DFDE" fill-rule="nonzero" points="57.06 116.01 47.46 132.15 68.79 132.15 58.56 115.77 57.87 114.66"></polygon>
                <path d="M113.55,111.69 C113.85,111.39 113.85,110.91 113.55,110.64 C113.25,110.34 112.77,110.34 112.5,110.64 L106.32,116.82 L107.37,117.87 L113.55,111.69 Z" id="Path" fill="#99DFDE" fill-rule="nonzero"></path>
                <path d="M99.06,124.08 C98.76,124.38 98.76,124.86 99.06,125.13 C99.21,125.28 99.39,125.34 99.6,125.34 C99.78,125.34 99.99,125.28 100.14,125.13 L106.32,118.95 L105.27,117.9 L99.06,124.08 Z" id="Path" fill="#99DFDE" fill-rule="nonzero"></path>
                <path d="M99.06,110.64 C98.76,110.94 98.76,111.42 99.06,111.69 L105.24,117.87 L106.29,118.92 L112.47,125.1 C112.62,125.25 112.8,125.31 113.01,125.31 C113.19,125.31 113.4,125.25 113.55,125.1 C113.85,124.8 113.85,124.32 113.55,124.05 L107.37,117.9 L106.32,116.85 L100.14,110.67 C99.84,110.34 99.36,110.34 99.06,110.64 Z" id="Path" fill="#99DFDE" fill-rule="nonzero"></path>
                <path d="M99.48,79.68 L137.31,117.51 C137.76,116.82 138.21,116.16 138.66,115.47 L101.16,78 L99.48,79.68 Z" id="Path" fill="#321850" fill-rule="nonzero"></path>
                <path d="M86.85,67.05 L88.56,65.34 L63.87,40.65 C63.63,40.41 63.33,40.29 63.03,40.29 C62.7,40.29 62.4,40.41 62.19,40.65 L4.89,97.95 C5.16,98.82 5.43,99.66 5.73,100.5 L63.03,43.2 L86.85,67.05 Z" id="Path" fill="#321850" fill-rule="nonzero"></path>
                <path d="M94.2,84.96 C94.17,84.99 94.11,85.02 94.05,85.05 C94.11,85.02 94.14,84.99 94.2,84.96 Z" id="Path" fill="#321850" fill-rule="nonzero"></path>
                <path d="M81.48,72.48 C81.51,72.42 81.54,72.39 81.57,72.33 C81.54,72.39 81.51,72.42 81.48,72.48 Z" id="Path" fill="#321850" fill-rule="nonzero"></path>
                <path d="M86.85,67.05 L81.66,72.24 C81.66,72.24 81.63,72.27 81.63,72.27 C81.81,72.06 82.05,71.94 82.32,71.91 C82.71,71.85 83.07,71.97 83.34,72.24 L94.29,83.19 C94.56,83.46 94.68,83.85 94.62,84.21 C94.59,84.48 94.44,84.72 94.26,84.9 C94.26,84.9 94.29,84.87 94.29,84.87 L99.48,79.68 L101.19,77.97 L140.31,38.85 C139.89,38.13 139.47,37.44 139.05,36.72 L93.45,82.32 L84.21,73.08 L131.1,26.16 C130.56,25.56 130.02,24.99 129.48,24.39 L88.53,65.37 L86.85,67.05 Z" id="Path" fill="#321850" fill-rule="nonzero"></path>
                <path d="M81.57,72.33 C81.54,72.36 81.51,72.42 81.48,72.48 C81.48,72.48 81.45,72.51 81.45,72.51 L75.21,84.24 C75.39,83.91 75.72,83.67 76.08,83.61 C76.47,83.55 76.83,83.67 77.1,83.94 L77.73,84.57 L82.8,75.06 L91.44,83.7 L81.96,88.8 L82.59,89.43 C82.86,89.7 82.98,90.09 82.92,90.45 C82.86,90.84 82.62,91.14 82.29,91.32 L94.02,85.08 C94.02,85.08 94.05,85.05 94.05,85.05 C94.11,85.02 94.14,84.99 94.2,84.96 C94.23,84.93 94.26,84.93 94.29,84.9 C94.5,84.72 94.62,84.48 94.65,84.21 C94.71,83.82 94.59,83.46 94.32,83.19 L83.37,72.24 C83.1,71.97 82.71,71.85 82.35,71.91 C82.08,71.94 81.84,72.09 81.66,72.27 C81.6,72.3 81.6,72.3 81.57,72.33 Z" id="Path" fill="#321850" fill-rule="nonzero"></path>
                <path d="M82.92,90.45 C82.98,90.06 82.86,89.7 82.59,89.43 L81.96,88.8 L77.76,84.6 L77.13,83.97 C76.86,83.7 76.47,83.58 76.11,83.64 C75.72,83.7 75.42,83.94 75.24,84.27 C75.24,84.27 75.24,84.27 75.24,84.27 L70.26,93.6 L68.97,96 C68.97,96 68.97,96 68.97,96 C68.73,96.45 68.82,97.02 69.18,97.41 C69.42,97.65 69.72,97.77 70.02,97.77 C70.2,97.77 70.41,97.71 70.59,97.62 L82.32,91.38 C82.62,91.14 82.86,90.84 82.92,90.45 Z M72.93,93.6 L76.56,86.79 L79.74,89.97 L72.93,93.6 Z" id="Shape" fill="#321850" fill-rule="nonzero"></path>
                <path d="M95.34,5.61 C95.22,5.61 95.07,5.58 94.95,5.55 C92.49,4.89 89.94,4.32 87.39,3.93 C86.58,3.81 86.01,3.03 86.16,2.22 C86.28,1.41 87.06,0.84 87.87,0.99 C90.51,1.41 93.15,1.98 95.73,2.67 C96.54,2.88 96.99,3.72 96.78,4.5 C96.6,5.16 96,5.61 95.34,5.61 Z" id="Path" fill="#321850" fill-rule="nonzero"></path>
                <path d="M75.81,151.62 C55.56,151.62 36.51,143.73 22.2,129.42 C7.89,115.11 0,96.06 0,75.81 C0,55.56 7.89,36.51 22.2,22.2 C36.51,7.89 55.56,0 75.81,0 C76.65,0 77.31,0.66 77.31,1.5 C77.31,2.34 76.65,3 75.81,3 C56.37,3 38.07,10.56 24.33,24.33 C10.56,38.07 3,56.37 3,75.81 C3,95.25 10.56,113.55 24.33,127.29 C38.07,141.03 56.37,148.62 75.81,148.62 C95.25,148.62 113.55,141.06 127.29,127.29 C141.03,113.55 148.62,95.25 148.62,75.81 C148.62,62.16 144.81,48.87 137.64,37.35 C130.65,26.13 120.75,17.04 109.02,11.01 C108.27,10.62 108,9.72 108.36,9 C108.75,8.25 109.65,7.98 110.37,8.34 C122.58,14.61 132.87,24.09 140.16,35.76 C147.63,47.76 151.59,61.59 151.59,75.81 C151.59,96.06 143.7,115.11 129.39,129.42 C115.08,143.73 96.06,151.62 75.81,151.62 Z" id="Path" fill="#321850" fill-rule="nonzero"></path>
                <path d="M104.55,6.42 C104.55,7.47 103.71,8.34 102.63,8.34 C101.55,8.34 100.71,7.5 100.71,6.42 C100.71,5.34 101.55,4.5 102.63,4.5 C103.71,4.5 104.55,5.37 104.55,6.42 Z" id="Path" fill="#321850" fill-rule="nonzero"></path>
            </g>
        </g>
    </g>
</svg>