<?xml version="1.0" encoding="UTF-8"?>
<svg width="152px" height="152px" viewBox="0 0 152 152" version="1.1" xmlns="http://www.w3.org/2000/svg" xmlns:xlink="http://www.w3.org/1999/xlink">
    <!-- Generator: Sketch 63.1 (92452) - https://sketch.com -->
    <title>hero.forms</title>
    <desc>Created with Sketch.</desc>
    <g id="Symbols" stroke="none" stroke-width="1" fill="none" fill-rule="evenodd">
        <g id="Dashboard-Card" transform="translate(-128.000000, -79.000000)" fill-rule="nonzero">
            <g id="hero.forms" transform="translate(128.000000, 79.000000)">
                <rect id="Rectangle" fill="#ADA3B9" x="31.11" y="94.5" width="89.73" height="13.29"></rect>
                <path d="M105.39,125.43 L37.56,125.43 C37.14,125.43 36.81,125.1 36.81,124.68 C36.81,124.26 37.14,123.93 37.56,123.93 L105.39,123.93 C105.81,123.93 106.14,124.26 106.14,124.68 C106.14,125.1 105.78,125.43 105.39,125.43 Z" id="Path" fill="#ADA3B9"></path>
                <path d="M112.8,132.27 L37.56,132.27 C37.14,132.27 36.81,131.94 36.81,131.52 C36.81,131.1 37.14,130.77 37.56,130.77 L112.8,130.77 C113.22,130.77 113.55,131.1 113.55,131.52 C113.55,131.94 113.22,132.27 112.8,132.27 Z" id="Path" fill="#ADA3B9"></path>
                <path d="M91.98,139.11 L35.88,139.11 C35.46,139.11 35.13,138.78 35.13,138.36 C35.13,137.94 35.46,137.61 35.88,137.61 L91.98,137.61 C92.4,137.61 92.73,137.94 92.73,138.36 C92.73,138.78 92.4,139.11 91.98,139.11 Z" id="Path" fill="#ADA3B9"></path>
                <path d="M76.35,145.95 L49.47,145.95 C49.05,145.95 48.72,145.62 48.72,145.2 C48.72,144.78 49.05,144.45 49.47,144.45 L76.35,144.45 C76.77,144.45 77.1,144.78 77.1,145.2 C77.1,145.62 76.77,145.95 76.35,145.95 Z" id="Path" fill="#ADA3B9"></path>
                <g id="Group" fill="#321850">
                    <path d="M95.34,5.61 C95.22,5.61 95.07,5.58 94.95,5.55 C92.49,4.89 89.94,4.32 87.39,3.93 C86.58,3.81 86.01,3.03 86.16,2.22 C86.28,1.41 87.06,0.84 87.87,0.99 C90.51,1.41 93.15,1.98 95.73,2.67 C96.54,2.88 96.99,3.72 96.78,4.5 C96.6,5.16 96,5.61 95.34,5.61 Z" id="Path"></path>
                    <path d="M75.81,151.62 C55.56,151.62 36.51,143.73 22.2,129.42 C7.89,115.11 0,96.06 0,75.81 C0,55.56 7.89,36.51 22.2,22.2 C36.51,7.89 55.56,0 75.81,0 C76.65,0 77.31,0.66 77.31,1.5 C77.31,2.34 76.65,3 75.81,3 C56.37,3 38.07,10.56 24.33,24.33 C10.56,38.07 3,56.37 3,75.81 C3,95.25 10.56,113.55 24.33,127.29 C38.07,141.03 56.37,148.62 75.81,148.62 C95.25,148.62 113.55,141.06 127.29,127.29 C141.03,113.55 148.62,95.25 148.62,75.81 C148.62,62.16 144.81,48.87 137.64,37.35 C130.65,26.13 120.75,17.04 109.02,11.01 C108.27,10.62 108,9.72 108.36,9 C108.75,8.25 109.65,7.98 110.37,8.34 C122.58,14.61 132.87,24.09 140.16,35.76 C147.63,47.76 151.59,61.59 151.59,75.81 C151.59,96.06 143.7,115.11 129.39,129.42 C115.08,143.73 96.06,151.62 75.81,151.62 Z" id="Path"></path>
                    <path d="M104.55,6.42 C104.55,7.47 103.71,8.34 102.63,8.34 C101.55,8.34 100.71,7.5 100.71,6.42 C100.71,5.34 101.55,4.5 102.63,4.5 C103.71,4.5 104.55,5.37 104.55,6.42 Z" id="Path"></path>
                </g>
                <g id="Group" transform="translate(29.400000, 45.900000)">
                    <path d="M91.38,16.17 L1.44,16.17 C0.78,16.17 0.24,15.63 0.24,14.97 L0.24,1.29 C0.24,0.63 0.78,0.09 1.44,0.09 L91.35,0.09 C92.01,0.09 92.55,0.63 92.55,1.29 L92.55,14.97 C92.58,15.63 92.04,16.17 91.38,16.17 Z M2.64,13.77 L90.15,13.77 L90.15,2.49 L2.64,2.49 L2.64,13.77 Z" id="Shape" fill="#321850"></path>
                    <path d="M91.38,39.81 L1.44,39.81 C0.78,39.81 0.24,39.27 0.24,38.61 L0.24,24.93 C0.24,24.27 0.78,23.73 1.44,23.73 L91.35,23.73 C92.01,23.73 92.55,24.27 92.55,24.93 L92.55,38.61 C92.58,39.27 92.04,39.81 91.38,39.81 Z M2.64,37.41 L90.15,37.41 L90.15,26.13 L2.64,26.13 L2.64,37.41 Z" id="Shape" fill="#321850"></path>
                    <path d="M91.38,63.48 L1.44,63.48 C0.78,63.48 0.24,62.94 0.24,62.28 L0.24,48.6 C0.24,47.94 0.78,47.4 1.44,47.4 L91.35,47.4 C92.01,47.4 92.55,47.94 92.55,48.6 L92.55,62.28 C92.58,62.94 92.04,63.48 91.38,63.48 Z M2.64,61.08 L90.15,61.08 L90.15,49.8 L2.64,49.8 L2.64,61.08 Z" id="Shape" fill="#321850"></path>
                    <circle id="Oval" fill="#ADA3B9" cx="8.55" cy="31.59" r="2.34"></circle>
                    <circle id="Oval" fill="#ADA3B9" cx="15.45" cy="31.59" r="2.34"></circle>
                    <circle id="Oval" fill="#ADA3B9" cx="22.38" cy="31.59" r="2.34"></circle>
                    <circle id="Oval" fill="#ADA3B9" cx="29.28" cy="31.59" r="2.34"></circle>
                    <circle id="Oval" fill="#ADA3B9" cx="36.18" cy="31.59" r="2.34"></circle>
                    <circle id="Oval" fill="#ADA3B9" cx="43.08" cy="31.59" r="2.34"></circle>
                    <circle id="Oval" fill="#ADA3B9" cx="50.01" cy="31.59" r="2.34"></circle>
                </g>
                <path d="M120.42,136.53 C119.58,136.53 118.92,135.87 118.92,135.03 L118.92,119.13 L32.79,119.13 L32.79,134.85 C32.79,135.69 32.13,136.35 31.29,136.35 C30.45,136.35 29.79,135.69 29.79,134.85 L29.79,117.63 C29.79,116.79 30.45,116.13 31.29,116.13 L120.42,116.13 C121.26,116.13 121.92,116.79 121.92,117.63 L121.92,135.03 C121.92,135.87 121.26,136.53 120.42,136.53 Z" id="Path" fill="#321850"></path>
            </g>
        </g>
    </g>
</svg>