<?xml version="1.0" encoding="UTF-8"?>
<svg width="152px" height="152px" viewBox="0 0 152 152" version="1.1" xmlns="http://www.w3.org/2000/svg" xmlns:xlink="http://www.w3.org/1999/xlink">
    <!-- Generator: Sketch 63.1 (92452) - https://sketch.com -->
    <title>hero.charts</title>
    <desc>Created with Sketch.</desc>
    <g id="Design-System" stroke="none" stroke-width="1" fill="none" fill-rule="evenodd">
        <g id="Dashboard" transform="translate(-618.000000, -630.000000)">
            <g id="hero.charts" transform="translate(618.000000, 630.000000)">
                <path d="M130.32,25.29 C135.96,34.77 139.23,45.84 139.23,57.63 C139.23,90.84 113.58,118.14 81.06,120.81 L81.06,149.91 C119.67,147.24 150.15,115.08 150.15,75.78 C150.12,56.31 142.59,38.55 130.32,25.29 Z" id="Path"></path>
                <path d="M12.42,57.66 C12.42,45.84 15.66,34.77 21.33,25.32 C9.03,38.58 1.53,56.31 1.53,75.84 C1.53,115.14 32.01,147.3 70.62,149.97 L70.62,120.87 C38.07,118.17 12.42,90.84 12.42,57.66 Z" id="Path"></path>
                <path d="M70.59,118.41 L70.59,105.48 C46.5,102.87 27.69,82.41 27.69,57.63 C27.69,31.08 49.29,9.51 75.81,9.51 C102.36,9.51 123.93,31.11 123.93,57.63 C123.93,82.41 105.12,102.87 81.03,105.48 L81.03,118.41 C112.23,115.74 136.8,89.52 136.8,57.63 C136.8,42.03 130.92,27.78 121.26,17.01 C108.69,7.29 92.94,1.5 75.81,1.5 C58.68,1.5 42.93,7.29 30.36,17.01 C20.7,27.81 14.82,42.06 14.82,57.63 C14.82,89.52 39.39,115.77 70.59,118.41 Z" id="Path" fill="#FFFFFF" fill-rule="nonzero"></path>
                <path d="M121.53,57.66 C121.53,32.46 101.01,11.94 75.81,11.94 C50.61,11.94 30.09,32.46 30.09,57.66 C30.09,81.12 47.82,100.47 70.59,103.08 L70.59,96.06 L58.71,96.06 C58.29,96.06 57.87,95.82 57.66,95.46 C57.45,95.1 57.45,94.62 57.66,94.26 L61.68,87.3 C50.61,81.99 42.96,70.71 42.96,57.63 C42.96,39.51 57.72,24.75 75.84,24.75 C93.96,24.75 108.72,39.51 108.72,57.63 C108.72,70.68 101.07,81.99 90,87.3 L94.02,94.26 C94.23,94.62 94.23,95.1 94.02,95.46 C93.81,95.82 93.42,96.06 92.97,96.06 L81.09,96.06 L81.09,103.08 C103.8,100.47 121.53,81.09 121.53,57.66 Z" id="Path" fill="#ADA3B9" fill-rule="nonzero"></path>
                <path d="M106.29,57.66 C106.29,40.86 92.61,27.18 75.81,27.18 C59.01,27.18 45.33,40.86 45.33,57.66 C45.33,69.84 52.5,80.37 62.85,85.23 L69.84,73.11 C63.63,70.71 59.22,64.68 59.22,57.63 C59.22,48.48 66.66,41.04 75.81,41.04 C84.96,41.04 92.4,48.48 92.4,57.63 C92.4,64.68 87.99,70.71 81.78,73.11 L88.77,85.23 C99.09,80.37 106.29,69.84 106.29,57.66 Z" id="Path" fill="#FFFFFF" fill-rule="nonzero"></path>
                <path d="M78.63,94.86 C78.63,94.2 79.17,93.66 79.83,93.66 L90.84,93.66 L75.81,67.62 L60.78,93.66 L71.79,93.66 C72.45,93.66 72.99,94.2 72.99,94.86 L72.99,150.06 C73.92,150.09 74.88,150.12 75.81,150.12 C76.77,150.12 77.7,150.09 78.63,150.06 L78.63,94.86 Z" id="Path" fill="#FFFFFF" fill-rule="nonzero"></path>
                <path d="M70.59,120.84 L70.59,118.44 C39.39,115.77 14.82,89.55 14.82,57.66 C14.82,42.06 20.7,27.81 30.36,17.04 C27.12,19.53 24.09,22.29 21.3,25.29 C15.66,34.77 12.39,45.84 12.39,57.63 C12.42,90.84 38.07,118.17 70.59,120.84 Z" id="Path" fill="#321850" fill-rule="nonzero"></path>
                <path d="M81.03,118.41 L81.03,120.81 C113.55,118.17 139.2,90.84 139.2,57.66 C139.2,45.84 135.96,34.77 130.29,25.32 C127.5,22.32 124.47,19.56 121.23,17.04 C130.89,27.84 136.77,42.09 136.77,57.66 C136.8,89.52 112.23,115.77 81.03,118.41 Z" id="Path" fill="#321850" fill-rule="nonzero"></path>
                <path d="M123.93,57.66 C123.93,31.11 102.33,9.54 75.81,9.54 C49.26,9.54 27.69,31.14 27.69,57.66 C27.69,82.44 46.5,102.9 70.59,105.51 L70.59,103.08 C47.82,100.47 30.09,81.09 30.09,57.66 C30.09,32.46 50.61,11.94 75.81,11.94 C101.01,11.94 121.53,32.46 121.53,57.66 C121.53,81.12 103.8,100.47 81.03,103.08 L81.03,105.51 C105.12,102.87 123.93,82.41 123.93,57.66 Z" id="Path" fill="#321850" fill-rule="nonzero"></path>
                <path d="M108.69,57.66 C108.69,39.54 93.93,24.78 75.81,24.78 C57.69,24.78 42.93,39.54 42.93,57.66 C42.93,70.71 50.58,82.02 61.65,87.33 L62.85,85.23 C52.5,80.37 45.33,69.84 45.33,57.66 C45.33,40.86 59.01,27.18 75.81,27.18 C92.61,27.18 106.29,40.86 106.29,57.66 C106.29,69.84 99.12,80.37 88.77,85.23 L89.97,87.33 C101.01,82.02 108.69,70.71 108.69,57.66 Z" id="Path" fill="#321850" fill-rule="nonzero"></path>
                <path d="M92.4,57.66 C92.4,48.51 84.96,41.07 75.81,41.07 C66.66,41.07 59.22,48.51 59.22,57.66 C59.22,64.71 63.63,70.74 69.84,73.14 L71.07,71.04 C65.58,69.09 61.62,63.84 61.62,57.66 C61.62,49.83 67.98,43.47 75.81,43.47 C83.64,43.47 90,49.83 90,57.66 C90,63.81 86.04,69.09 80.55,71.04 L81.78,73.14 C87.99,70.74 92.4,64.71 92.4,57.66 Z" id="Path" fill="#321850" fill-rule="nonzero"></path>
                <path d="M81.03,118.41 L81.03,105.48 L81.03,103.05 L81.03,96.03 L92.91,96.03 C93.33,96.03 93.75,95.79 93.96,95.43 C94.17,95.07 94.17,94.59 93.96,94.23 L89.94,87.27 L88.74,85.17 L81.75,73.05 L80.52,70.95 L76.83,64.56 C76.62,64.2 76.23,63.96 75.78,63.96 C75.36,63.96 74.94,64.2 74.73,64.56 L71.04,70.95 L69.81,73.05 L62.82,85.17 L61.62,87.27 L57.6,94.23 C57.39,94.59 57.39,95.07 57.6,95.43 C57.81,95.79 58.2,96.03 58.65,96.03 L70.53,96.03 L70.53,103.05 L70.53,105.48 L70.53,118.41 L70.53,120.81 L70.53,149.91 C71.34,149.97 72.12,150 72.93,150.03 L72.93,94.83 C72.93,94.17 72.39,93.63 71.73,93.63 L60.72,93.63 L75.75,67.59 L90.78,93.63 L79.77,93.63 C79.11,93.63 78.57,94.17 78.57,94.83 L78.57,150.03 C79.38,150 80.16,149.97 80.97,149.91 L80.97,120.81 L80.97,118.41 L81.03,118.41 Z" id="Path" fill="#321850" fill-rule="nonzero"></path>
                <path d="M95.34,5.61 C95.22,5.61 95.07,5.58 94.95,5.55 C92.49,4.89 89.94,4.32 87.39,3.93 C86.58,3.81 86.01,3.03 86.16,2.22 C86.28,1.41 87.06,0.84 87.87,0.99 C90.51,1.41 93.15,1.98 95.73,2.67 C96.54,2.88 96.99,3.72 96.78,4.5 C96.6,5.16 96,5.61 95.34,5.61 Z" id="Path" fill="#321850" fill-rule="nonzero"></path>
                <path d="M75.81,151.62 C55.56,151.62 36.51,143.73 22.2,129.42 C7.89,115.11 0,96.06 0,75.81 C0,55.56 7.89,36.51 22.2,22.2 C36.51,7.89 55.56,0 75.81,0 C76.65,0 77.31,0.66 77.31,1.5 C77.31,2.34 76.65,3 75.81,3 C56.37,3 38.07,10.56 24.33,24.33 C10.56,38.07 3,56.37 3,75.81 C3,95.25 10.56,113.55 24.33,127.29 C38.1,141.03 56.37,148.62 75.81,148.62 C95.25,148.62 113.55,141.06 127.29,127.29 C141.03,113.52 148.62,95.25 148.62,75.81 C148.62,62.16 144.81,48.87 137.64,37.35 C130.65,26.13 120.75,17.04 109.02,11.01 C108.27,10.62 108,9.72 108.36,9 C108.75,8.25 109.65,7.98 110.37,8.34 C122.58,14.61 132.87,24.09 140.16,35.76 C147.63,47.76 151.59,61.59 151.59,75.81 C151.59,96.06 143.7,115.11 129.39,129.42 C115.08,143.73 96.06,151.62 75.81,151.62 Z" id="Path" fill="#321850" fill-rule="nonzero"></path>
                <path d="M104.55,6.42 C104.55,7.47 103.71,8.34 102.63,8.34 C101.55,8.34 100.71,7.5 100.71,6.42 C100.71,5.34 101.55,4.5 102.63,4.5 C103.71,4.5 104.55,5.37 104.55,6.42 Z" id="Path" fill="#321850" fill-rule="nonzero"></path>
            </g>
        </g>
    </g>
</svg>