<?xml version="1.0" encoding="UTF-8"?>
<svg width="152px" height="152px" viewBox="0 0 152 152" version="1.1" xmlns="http://www.w3.org/2000/svg" xmlns:xlink="http://www.w3.org/1999/xlink">
    <!-- Generator: Sketch 63.1 (92452) - https://sketch.com -->
    <title>hero.cards</title>
    <desc>Created with Sketch.</desc>
    <g id="Design-System" stroke="none" stroke-width="1" fill="none" fill-rule="evenodd">
        <g id="hero.cards" fill-rule="nonzero">
            <rect id="Rectangle" fill="#FCE199" x="30.9" y="72.99" width="90.81" height="40.86"></rect>
            <path d="M72.15,65.61 L30.81,65.61 C29.97,65.61 29.31,64.95 29.31,64.11 L29.31,22.74 C29.31,21.9 29.97,21.24 30.81,21.24 L72.15,21.24 C72.99,21.24 73.65,21.9 73.65,22.74 L73.65,64.08 C73.65,64.92 72.99,65.61 72.15,65.61 Z M32.31,62.61 L70.65,62.61 L70.65,24.24 L32.31,24.24 L32.31,62.61 Z" id="Shape" fill="#321850"></path>
            <path d="M122.58,116.04 L30.81,116.04 C29.97,116.04 29.31,115.38 29.31,114.54 L29.31,73.2 C29.31,72.36 29.97,71.7 30.81,71.7 L122.55,71.7 C123.39,71.7 124.050943,72.36 124.050943,73.2 L124.050943,114.54 C124.08,115.38 123.39,116.04 122.58,116.04 Z M32.31,113.04 L121.05,113.04 L121.05,74.7 L32.31,74.7 L32.31,113.04 Z" id="Shape" fill="#321850"></path>
            <circle id="Oval" fill="#FCE199" cx="51.48" cy="43.44" r="12.72"></circle>
            <circle id="Oval" fill="#FFFFFF" cx="43.14" cy="84.06" r="4.95"></circle>
            <path d="M114.66,95.4 L38.34,95.4 C37.92,95.4 37.56,95.07 37.56,94.62 C37.56,94.17 37.89,93.84 38.34,93.84 L114.63,93.84 C115.05,93.84 115.41,94.17 115.41,94.62 C115.41,95.07 115.08,95.4 114.66,95.4 Z" id="Path" fill="#FFFFFF"></path>
            <path d="M114.66,101.46 L38.34,101.46 C37.92,101.46 37.56,101.13 37.56,100.68 C37.56,100.23 37.89,99.9 38.34,99.9 L114.63,99.9 C115.05,99.9 115.41,100.23 115.41,100.68 C115.41,101.13 115.08,101.46 114.66,101.46 Z" id="Path" fill="#FFFFFF"></path>
            <path d="M114.66,107.52 L38.34,107.52 C37.92,107.52 37.56,107.19 37.56,106.74 C37.56,106.29 37.89,105.96 38.34,105.96 L114.63,105.96 C115.05,105.96 115.41,106.29 115.41,106.74 C115.41,107.19 115.08,107.52 114.66,107.52 Z" id="Path" fill="#FFFFFF"></path>
            <path d="M30.72,135.24 C29.88,135.24 29.22,134.58 29.22,133.74 L29.22,123.57 C29.22,122.73 29.88,122.07 30.72,122.07 L122.79,122.07 C123.63,122.07 124.29,122.73 124.29,123.57 L124.29,133.5 C124.29,134.34 123.63,135 122.79,135 C121.95,135 121.29,134.34 121.29,133.5 L121.29,125.07 L32.22,125.07 L32.22,133.74 C32.22,134.58 31.53,135.24 30.72,135.24 Z" id="Path" fill="#321850"></path>
            <g id="Group" fill="#321850">
                <path d="M95.34,5.61 C95.22,5.61 95.07,5.58 94.95,5.55 C92.49,4.89 89.94,4.32 87.39,3.93 C86.58,3.81 86.01,3.03 86.16,2.22 C86.28,1.41 87.06,0.84 87.87,0.99 C90.51,1.41 93.15,1.98 95.73,2.67 C96.54,2.88 96.99,3.72 96.78,4.5 C96.6,5.16 96,5.61 95.34,5.61 Z" id="Path"></path>
                <path d="M75.81,151.62 C55.56,151.62 36.51,143.73 22.2,129.42 C7.89,115.11 0,96.06 0,75.81 C0,55.56 7.89,36.51 22.2,22.2 C36.51,7.89 55.56,0 75.81,0 C76.65,0 77.31,0.66 77.31,1.5 C77.31,2.34 76.65,3 75.81,3 C56.37,3 38.07,10.56 24.33,24.33 C10.56,38.07 3,56.37 3,75.81 C3,95.25 10.56,113.55 24.33,127.29 C38.07,141.03 56.37,148.62 75.81,148.62 C95.25,148.62 113.55,141.06 127.29,127.29 C141.03,113.55 148.62,95.25 148.62,75.81 C148.62,62.16 144.81,48.87 137.64,37.35 C130.65,26.13 120.75,17.04 109.02,11.01 C108.27,10.62 108,9.72 108.36,9 C108.75,8.25 109.65,7.98 110.37,8.34 C122.58,14.61 132.87,24.09 140.16,35.76 C147.63,47.76 151.59,61.59 151.59,75.81 C151.59,96.06 143.7,115.11 129.39,129.42 C115.08,143.73 96.06,151.62 75.81,151.62 Z" id="Path"></path>
                <path d="M104.55,6.42 C104.55,7.47 103.71,8.34 102.63,8.34 C101.55,8.34 100.71,7.5 100.71,6.42 C100.71,5.34 101.55,4.5 102.63,4.5 C103.71,4.5 104.55,5.37 104.55,6.42 Z" id="Path"></path>
            </g>
        </g>
    </g>
</svg>