<?xml version="1.0" encoding="UTF-8"?>
<svg width="152px" height="152px" viewBox="0 0 152 152" version="1.1" xmlns="http://www.w3.org/2000/svg" xmlns:xlink="http://www.w3.org/1999/xlink">
    <!-- Generator: Sketch 63.1 (92452) - https://sketch.com -->
    <title>hero.info</title>
    <desc>Created with Sketch.</desc>
    <g id="Design-System" stroke="none" stroke-width="1" fill="none" fill-rule="evenodd">
        <g id="Dashboard" transform="translate(-1474.000000, -610.000000)">
            <g id="hero.info" transform="translate(1474.000000, 610.000000)">
                <path d="M31.41,69.51 C30.87,57.66 35.1,45.66 44.13,36.63 C52.38,28.38 63.33,23.85 75,23.85 C86.67,23.85 97.62,28.38 105.87,36.63 C113.25,44.01 117.75,53.79 118.53,64.2 C119.28,74.13 116.61,84.03 111,92.19 L118.83,100.02 C119.46,99.84 120.12,99.72 120.78,99.72 C122.55,99.72 124.23,100.41 125.49,101.67 L138.9,115.08 C146.01,103.68 150.12,90.24 150.12,75.81 C150.12,34.77 116.85,1.5 75.81,1.5 C36.9,1.5 4.98,31.41 1.77,69.51 L31.41,69.51 Z" id="Path"></path>
                <path d="M88.14,58.44 L88.14,96.6 C91.62,95.04 94.8,92.82 97.59,90.06 C110.04,77.61 110.04,57.36 97.59,44.91 C91.56,38.88 83.55,35.55 75.03,35.55 C66.51,35.55 58.5,38.88 52.47,44.91 C48.9,48.48 46.35,52.71 44.82,57.21 L86.97,57.21 C87.6,57.24 88.14,57.78 88.14,58.44 Z" id="Path"></path>
                <path d="M107.22,113.31 C107.22,112.65 107.31,111.99 107.52,111.36 L99.69,103.5 C93.51,107.76 86.43,110.28 78.96,110.97 L78.96,150.06 C96,149.34 111.54,142.89 123.75,132.6 L109.17,118.02 C107.91,116.76 107.22,115.08 107.22,113.31 Z" id="Path"></path>
                <path d="M3.78,90.06 L37.62,90.06 C36.36,87.96 35.28,85.77 34.38,83.52 L3.78,83.52 C3.36,83.52 3.03,83.19 3.03,82.77 C3.03,82.35 3.36,82.02 3.78,82.02 L33.84,82.02 C32.7,78.75 31.95,75.36 31.59,71.94 L1.59,71.94 C1.53,73.23 1.5,74.52 1.5,75.84 C1.5,81 2.04,86.04 3.03,90.9 C3.03,90.87 3.03,90.87 3.03,90.84 C3.03,90.39 3.36,90.06 3.78,90.06 Z" id="Path" fill="#FFFFFF" fill-rule="nonzero"></path>
                <path d="M75,111.15 C69,111.15 63.18,109.95 57.84,107.64 L8.67,107.64 C9.75,109.89 10.92,112.08 12.21,114.18 L67.05,114.18 C67.47,114.18 67.8,114.51 67.8,114.93 C67.8,115.35 67.47,115.68 67.05,115.68 L13.11,115.68 C14.55,117.96 16.14,120.15 17.82,122.22 L67.02,122.22 C67.44,122.22 67.77,122.55 67.77,122.97 C67.77,123.39 67.44,123.72 67.02,123.72 L19.05,123.72 C21,126.03 23.1,128.22 25.32,130.26 L67.02,130.26 C67.44,130.26 67.77,130.59 67.77,131.01 C67.77,131.43 67.44,131.76 67.02,131.76 L26.97,131.76 C29.7,134.16 32.61,136.35 35.7,138.3 L67.02,138.3 C67.44,138.3 67.77,138.63 67.77,139.05 C67.77,139.47 67.44,139.8 67.02,139.8 L38.13,139.8 C49.17,146.31 62.04,150.06 75.81,150.06 C76.05,150.06 76.32,150.06 76.56,150.06 L76.56,111.12 C76.05,111.15 75.51,111.15 75,111.15 Z" id="Path" fill="#FFFFFF" fill-rule="nonzero"></path>
                <path d="M38.55,91.56 L3.75,91.56 C3.42,91.56 3.15,91.35 3.06,91.08 C3.57,93.48 4.17,95.82 4.89,98.13 L43.86,98.13 C41.85,96.06 40.08,93.87 38.55,91.56 Z" id="Path" fill="#FFFFFF" fill-rule="nonzero"></path>
                <path d="M45.42,99.6 L5.4,99.6 C6.15,101.82 7.02,104.01 7.98,106.14 L54.69,106.14 C51.36,104.4 48.24,102.21 45.42,99.6 Z" id="Path" fill="#FFFFFF" fill-rule="nonzero"></path>
                <path d="M3.78,81.99 C3.36,81.99 3.03,82.32 3.03,82.74 C3.03,83.16 3.36,83.49 3.78,83.49 L34.38,83.49 C34.17,82.98 33.99,82.5 33.81,81.99 L3.78,81.99 Z" id="Path" fill="#B7B7B7" fill-rule="nonzero"></path>
                <path d="M3.78,91.56 L38.58,91.56 C38.25,91.08 37.95,90.57 37.65,90.06 L3.78,90.06 C3.36,90.06 3.03,90.39 3.03,90.81 C3.03,90.84 3.03,90.84 3.03,90.87 C3.03,90.93 3.06,90.99 3.06,91.08 C3.18,91.35 3.45,91.56 3.78,91.56 Z" id="Path" fill="#B7B7B7" fill-rule="nonzero"></path>
                <path d="M44.13,98.37 C44.04,98.28 43.95,98.19 43.86,98.1 L4.92,98.1 C5.07,98.61 5.25,99.09 5.4,99.6 L45.42,99.6 C44.97,99.21 44.55,98.79 44.13,98.37 Z" id="Path" fill="#B7B7B7" fill-rule="nonzero"></path>
                <path d="M54.69,106.17 L7.95,106.17 C8.19,106.68 8.4,107.16 8.64,107.67 L57.81,107.67 C56.76,107.22 55.71,106.71 54.69,106.17 Z" id="Path" fill="#B7B7B7" fill-rule="nonzero"></path>
                <path d="M67.77,114.96 C67.77,114.54 67.44,114.21 67.02,114.21 L12.18,114.21 C12.48,114.72 12.81,115.2 13.11,115.71 L67.02,115.71 C67.44,115.71 67.77,115.38 67.77,114.96 Z" id="Path" fill="#B7B7B7" fill-rule="nonzero"></path>
                <path d="M67.77,123.03 C67.77,122.61 67.44,122.28 67.02,122.28 L17.82,122.28 C18.24,122.79 18.63,123.3 19.05,123.78 L67.02,123.78 C67.44,123.78 67.77,123.42 67.77,123.03 Z" id="Path" fill="#B7B7B7" fill-rule="nonzero"></path>
                <path d="M67.77,131.07 C67.77,130.65 67.44,130.32 67.02,130.32 L25.32,130.32 C25.86,130.83 26.43,131.34 26.97,131.82 L67.02,131.82 C67.44,131.82 67.77,131.49 67.77,131.07 Z" id="Path" fill="#B7B7B7" fill-rule="nonzero"></path>
                <path d="M67.77,139.14 C67.77,138.72 67.44,138.39 67.02,138.39 L35.7,138.39 C36.51,138.9 37.32,139.41 38.16,139.89 L67.05,139.89 C67.44,139.89 67.77,139.53 67.77,139.14 Z" id="Path" fill="#B7B7B7" fill-rule="nonzero"></path>
                <path d="M108.48,91.62 C114.15,83.76 116.88,74.1 116.13,64.38 C115.38,54.57 111.15,45.3 104.16,38.34 C96.36,30.54 86.01,26.25 75,26.25 C63.99,26.25 53.61,30.54 45.84,38.34 C29.76,54.42 29.76,80.61 45.84,96.69 C53.64,104.49 63.99,108.78 75,108.78 C83.73,108.78 92.07,106.08 99.12,101.01 C99.33,100.86 99.57,100.77 99.81,100.77 C100.11,100.77 100.44,100.89 100.65,101.13 L108.66,109.14 L116.58,101.22 L108.6,93.18 C108.18,92.76 108.12,92.1 108.48,91.62 Z M99.27,91.77 C92.79,98.25 84.18,101.82 75,101.82 C65.82,101.82 57.21,98.25 50.73,91.77 C50.49,91.53 50.22,91.26 49.98,91.02 C49.92,90.96 49.86,90.9 49.8,90.81 C49.59,90.6 49.41,90.39 49.23,90.18 C49.2,90.12 49.14,90.09 49.11,90.03 C45.57,85.95 43.14,81.24 41.85,76.29 C41.82,76.17 41.79,76.05 41.76,75.93 C41.73,75.75 41.67,75.57 41.64,75.39 C40.32,69.78 40.38,63.84 42.03,58.11 C42.03,58.05 42.06,58.02 42.09,57.99 C43.65,52.59 46.53,47.49 50.79,43.26 C57.27,36.78 65.88,33.21 75.06,33.21 C84.24,33.21 92.85,36.78 99.33,43.26 C112.65,56.61 112.65,78.39 99.27,91.77 Z" id="Shape" fill="#FFFFFF" fill-rule="nonzero"></path>
                <path d="M120.81,102.12 C119.67,102.12 118.62,102.57 117.81,103.35 L110.88,110.28 C110.07,111.09 109.65,112.14 109.65,113.28 C109.65,114.42 110.1,115.47 110.88,116.28 L125.58,130.98 C130.14,126.87 134.16,122.22 137.58,117.12 L123.81,103.35 C123,102.57 121.92,102.12 120.81,102.12 Z" id="Path" fill="#99DFDE" fill-rule="nonzero"></path>
                <path d="M44.07,59.64 C43.2,63.03 42.93,66.48 43.17,69.87 L74.82,69.87 C75.48,69.87 76.02,70.41 76.02,71.07 C76.02,71.73 75.48,72.27 74.82,72.27 L43.44,72.27 C43.95,75.6 44.97,78.84 46.5,81.87 L74.82,81.87 C75.48,81.87 76.02,82.41 76.02,83.07 C76.02,83.73 75.48,84.27 74.82,84.27 L47.85,84.27 C49.14,86.34 50.67,88.29 52.44,90.06 C53.85,91.47 55.38,92.76 57.03,93.87 L74.85,93.87 C75.51,93.87 76.05,94.41 76.05,95.07 C76.05,95.73 75.51,96.27 74.85,96.27 L61.17,96.27 C65.43,98.34 70.14,99.42 75.03,99.42 C75.03,99.42 75.03,99.42 75.03,99.42 C78.72,99.42 82.32,98.79 85.77,97.56 L85.77,59.64 L44.07,59.64 Z" id="Path" fill="#99DFDE" fill-rule="nonzero"></path>
                <path d="M74.82,72.27 C75.48,72.27 76.02,71.73 76.02,71.07 C76.02,70.41 75.48,69.87 74.82,69.87 L43.17,69.87 L43.05,69.87 C43.11,70.68 43.2,71.46 43.32,72.27 L43.44,72.27 L74.82,72.27 Z" id="Path" fill="#FFFFFF" fill-rule="nonzero"></path>
                <path d="M76.02,83.07 C76.02,82.41 75.48,81.87 74.82,81.87 L46.5,81.87 L46.41,81.87 C46.83,82.68 47.28,83.49 47.76,84.27 L47.85,84.27 L74.82,84.27 C75.48,84.27 76.02,83.73 76.02,83.07 Z" id="Path" fill="#FFFFFF" fill-rule="nonzero"></path>
                <path d="M76.02,95.07 C76.02,94.41 75.48,93.87 74.82,93.87 L57,93.87 L56.88,93.87 C58.2,94.77 59.55,95.58 60.96,96.27 L61.17,96.27 L74.85,96.27 C75.48,96.27 76.02,95.73 76.02,95.07 Z" id="Path" fill="#FFFFFF" fill-rule="nonzero"></path>
                <path d="M76.56,111.12 L76.56,150.09 C77.37,150.09 78.15,150.06 78.96,150.03 L78.96,110.97 C78.18,111.06 77.37,111.09 76.56,111.12 Z" id="Path" fill="#321850" fill-rule="nonzero"></path>
                <path d="M31.41,69.51 L1.77,69.51 C1.71,70.32 1.65,71.1 1.59,71.91 L31.56,71.91 C31.5,71.1 31.44,70.32 31.41,69.51 Z" id="Path" fill="#321850" fill-rule="nonzero"></path>
                <path d="M31.59,71.91 C31.92,75.33 32.67,78.72 33.84,81.99 C34.02,82.5 34.2,82.98 34.41,83.49 C35.28,85.74 36.36,87.93 37.65,90.03 C37.95,90.54 38.28,91.05 38.58,91.53 C40.11,93.84 41.88,96.03 43.89,98.07 C43.98,98.16 44.07,98.25 44.16,98.34 C44.58,98.76 45,99.18 45.45,99.57 C48.27,102.18 51.39,104.37 54.72,106.11 C55.74,106.65 56.79,107.16 57.87,107.61 C63.24,109.89 69.03,111.12 75.03,111.12 C75.57,111.12 76.08,111.12 76.62,111.09 C77.43,111.06 78.21,111 79.02,110.94 C86.46,110.28 93.54,107.73 99.75,103.47 L107.58,111.3 C107.88,110.28 108.45,109.35 109.23,108.57 L116.16,101.64 C116.94,100.86 117.87,100.29 118.89,99.99 L111,92.19 C116.61,84.03 119.28,74.13 118.53,64.2 C117.75,53.82 113.25,44.01 105.87,36.63 C97.62,28.38 86.67,23.85 75,23.85 C63.33,23.85 52.38,28.38 44.13,36.63 C35.1,45.66 30.87,57.66 31.41,69.51 C31.44,70.32 31.5,71.1 31.59,71.91 Z M108.66,109.11 L100.68,101.1 C100.44,100.86 100.14,100.74 99.84,100.74 C99.6,100.74 99.36,100.8 99.15,100.98 C92.1,106.08 83.76,108.75 75.03,108.75 C64.02,108.75 53.64,104.46 45.87,96.66 C29.79,80.58 29.79,54.39 45.87,38.31 C53.67,30.51 64.02,26.22 75.03,26.22 C86.04,26.22 96.42,30.51 104.19,38.31 C111.15,45.27 115.41,54.54 116.16,64.35 C116.88,74.07 114.18,83.73 108.51,91.59 C108.15,92.07 108.21,92.73 108.63,93.15 L116.64,101.16 L108.66,109.11 Z" id="Shape" fill="#321850" fill-rule="nonzero"></path>
                <path d="M99.27,43.23 C92.79,36.75 84.18,33.18 75,33.18 C65.82,33.18 57.21,36.75 50.73,43.23 C46.5,47.46 43.59,52.56 42.03,57.96 C42.21,57.51 42.66,57.21 43.14,57.21 L44.79,57.21 C46.32,52.71 48.87,48.48 52.44,44.91 C58.47,38.88 66.48,35.55 75,35.55 C83.52,35.55 91.53,38.88 97.56,44.91 C110.01,57.36 110.01,77.61 97.56,90.06 C94.8,92.82 91.59,95.04 88.11,96.6 L88.11,98.4 C88.11,98.91 87.81,99.33 87.33,99.51 C83.37,101.04 79.23,101.79 74.97,101.79 C74.97,101.79 74.97,101.79 74.97,101.79 C65.79,101.79 57.18,98.22 50.7,91.74 C57.18,98.22 65.79,101.79 74.97,101.79 C84.15,101.79 92.76,98.22 99.24,91.74 C112.65,78.39 112.65,56.61 99.27,43.23 Z" id="Path" fill="#321850" fill-rule="nonzero"></path>
                <path d="M41.82,76.29 C43.11,81.24 45.54,85.95 49.08,90.03 C45.6,86.01 43.14,81.3 41.82,76.29 Z" id="Path" fill="#321850" fill-rule="nonzero"></path>
                <path d="M41.73,75.93 C41.7,75.75 41.64,75.57 41.61,75.39 C41.64,75.57 41.7,75.75 41.73,75.93 Z" id="Path" fill="#321850" fill-rule="nonzero"></path>
                <path d="M49.8,90.81 C49.59,90.6 49.41,90.39 49.23,90.18 C49.41,90.39 49.62,90.6 49.8,90.81 Z" id="Path" fill="#321850" fill-rule="nonzero"></path>
                <path d="M49.98,91.02 C50.22,91.29 50.46,91.53 50.73,91.77 C50.49,91.53 50.22,91.26 49.98,91.02 Z" id="Path" fill="#321850" fill-rule="nonzero"></path>
                <path d="M120.81,99.72 C120.15,99.72 119.49,99.81 118.86,100.02 C117.84,100.32 116.91,100.89 116.13,101.67 L109.17,108.6 C108.39,109.38 107.82,110.31 107.52,111.33 C107.34,111.96 107.22,112.62 107.22,113.28 C107.22,115.05 107.91,116.73 109.17,117.99 L123.75,132.57 C124.35,132.06 124.98,131.52 125.55,130.98 L110.85,116.28 C110.04,115.47 109.62,114.42 109.62,113.28 C109.62,112.14 110.07,111.09 110.85,110.28 L117.78,103.35 C118.59,102.54 119.64,102.12 120.78,102.12 C121.92,102.12 122.97,102.57 123.78,103.35 L137.55,117.12 C138,116.43 138.45,115.74 138.87,115.05 L125.46,101.64 C124.23,100.44 122.58,99.72 120.81,99.72 Z" id="Path" fill="#321850" fill-rule="nonzero"></path>
                <path d="M75,101.82 C75,101.82 75,101.82 75,101.82 C79.26,101.82 83.4,101.04 87.36,99.54 C87.81,99.36 88.14,98.91 88.14,98.43 L88.14,96.63 L88.14,58.44 C88.14,57.78 87.6,57.24 86.94,57.24 L44.79,57.24 L43.14,57.24 C42.66,57.24 42.21,57.54 42.03,57.99 C42,58.02 42,58.08 41.97,58.11 C40.35,63.84 40.26,69.78 41.58,75.39 C41.61,75.57 41.67,75.75 41.7,75.93 C41.73,76.05 41.76,76.17 41.79,76.29 C43.11,81.3 45.57,86.01 49.05,90.03 C49.08,90.09 49.14,90.12 49.17,90.18 C49.35,90.39 49.56,90.6 49.74,90.81 C49.8,90.87 49.86,90.93 49.92,91.02 C50.16,91.29 50.4,91.53 50.67,91.77 C57.21,98.25 65.82,101.82 75,101.82 Z M85.74,97.56 C82.29,98.79 78.69,99.42 75,99.42 C75,99.42 75,99.42 75,99.42 C70.11,99.42 65.43,98.34 61.14,96.27 L60.93,96.27 C59.52,95.58 58.17,94.77 56.85,93.87 L56.97,93.87 C55.35,92.76 53.82,91.5 52.38,90.06 C50.61,88.29 49.08,86.34 47.79,84.27 L47.7,84.27 C47.22,83.49 46.77,82.68 46.35,81.87 L46.44,81.87 C44.91,78.84 43.89,75.6 43.38,72.27 L43.26,72.27 C43.14,71.46 43.05,70.68 42.99,69.87 L43.11,69.87 C42.87,66.48 43.14,63.03 44.01,59.64 L85.68,59.64 L85.68,97.56 L85.74,97.56 Z" id="Shape" fill="#321850" fill-rule="nonzero"></path>
                <path d="M95.34,5.61 C95.22,5.61 95.07,5.58 94.95,5.55 C92.49,4.89 89.94,4.32 87.39,3.93 C86.58,3.81 86.01,3.03 86.16,2.22 C86.28,1.41 87.06,0.84 87.87,0.99 C90.51,1.41 93.15,1.98 95.73,2.67 C96.54,2.88 96.99,3.72 96.78,4.5 C96.6,5.16 96,5.61 95.34,5.61 Z" id="Path" fill="#321850" fill-rule="nonzero"></path>
                <path d="M75.81,151.62 C55.56,151.62 36.51,143.73 22.2,129.42 C7.89,115.11 0,96.06 0,75.81 C0,55.56 7.89,36.51 22.2,22.2 C36.51,7.89 55.56,0 75.81,0 C76.65,0 77.31,0.66 77.31,1.5 C77.31,2.34 76.65,3 75.81,3 C56.37,3 38.07,10.56 24.33,24.33 C10.56,38.07 3,56.37 3,75.81 C3,95.25 10.56,113.55 24.33,127.29 C38.07,141.03 56.37,148.62 75.81,148.62 C95.25,148.62 113.55,141.06 127.29,127.29 C141.03,113.55 148.62,95.25 148.62,75.81 C148.62,62.16 144.81,48.87 137.64,37.35 C130.65,26.13 120.75,17.04 109.02,11.01 C108.27,10.62 108,9.72 108.36,9 C108.75,8.25 109.65,7.98 110.37,8.34 C122.58,14.61 132.87,24.09 140.16,35.76 C147.63,47.76 151.59,61.59 151.59,75.81 C151.59,96.06 143.7,115.11 129.39,129.42 C115.08,143.73 96.06,151.62 75.81,151.62 Z" id="Path" fill="#321850" fill-rule="nonzero"></path>
                <path d="M104.55,6.42 C104.55,7.47 103.71,8.34 102.63,8.34 C101.55,8.34 100.71,7.5 100.71,6.42 C100.71,5.37 101.55,4.5 102.63,4.5 C103.71,4.5 104.55,5.37 104.55,6.42 Z" id="Path" fill="#321850" fill-rule="nonzero"></path>
            </g>
        </g>
    </g>
</svg>