<?xml version="1.0" encoding="UTF-8"?>
<svg viewBox="0 0 61 43" version="1.1" xmlns="http://www.w3.org/2000/svg" xmlns:xlink="http://www.w3.org/1999/xlink">
    <!-- Generator: Sketch 63.1 (92452) - https://sketch.com -->
    <title>Groupicon</title>
    <desc>Created with Sketch.</desc>
    <g id="Brand" stroke="none" stroke-width="1" fill="none" fill-rule="evenodd">
        <g id="Brand---Iconography" transform="translate(-690.000000, -812.000000)" fill="#000000" fill-rule="nonzero">
            <g id="Group" transform="translate(690.000000, 812.000000)">
                <path d="M20.7096919,19.9894303 C14.7879303,19.9894303 8.89345794,19.9894303 2.97169637,19.9894303 C1.7436813,19.9894303 0.706690795,19.6390839 0.215484766,18.4263464 C-0.439456606,16.9441116 0.461087781,15.354078 2.07115199,15.0306814 C2.4259119,14.9498322 2.78067181,14.9498322 3.16272094,14.9498322 C14.5969057,14.9498322 26.0310905,14.9498322 37.4652753,14.9498322 C39.6757024,14.9498322 41.3676343,14.1143908 42.431914,12.1470611 C43.9601106,9.29039054 41.940708,5.46352998 38.6932904,5.05928415 C35.5004512,4.68198804 33.0989995,6.67626748 32.8533965,9.91023415 C32.7715288,10.9612733 32.3349012,11.8236644 31.2979107,12.25486 C30.3427879,12.6321561 29.4149543,12.5243572 28.6235668,11.8236644 C28.0232038,11.3116197 27.7776008,10.6109269 27.7776008,9.82938498 C27.8321793,4.14299359 33.0171318,-0.519308349 38.775158,0.0466358173 C44.3148705,0.558680539 48.3809648,5.30183165 47.9716265,10.799575 C47.6168666,15.650525 43.4961938,19.7468828 38.5568442,19.9085811 C33.9995439,20.0702794 29.4149543,19.9624805 24.8576539,19.9894303 C23.4931927,19.9894303 22.1014423,19.9894303 20.7096919,19.9894303 Z" id="Path"></path>
                <path d="M33.5633156,23.0120109 C39.4006004,23.0120109 45.2378851,22.9849864 51.0751699,23.0120109 C55.9032045,23.0390354 59.9947593,26.5251994 60.8403473,31.2274671 C61.6041041,35.5243669 59.5856038,39.6591195 55.6849883,41.7940572 C51.975312,43.8208967 47.3109395,43.2533816 44.0922498,40.3887818 C41.9100873,38.4430158 40.8735601,35.9837839 40.791729,33.0921595 C40.7644519,31.6868841 41.8009791,30.605903 43.1375537,30.5248294 C44.5286823,30.4437558 45.6470406,31.3896143 45.7834258,32.7948897 C45.9198109,34.0109934 46.1380272,35.1460235 46.9290611,36.1189065 C48.2929127,37.7944272 50.6114604,38.4430158 52.7117918,37.6593045 C54.6484611,36.9296423 55.9850356,34.9298273 55.8759275,32.8489387 C55.7668194,30.146486 53.721042,28.146671 50.9115077,28.0385729 C50.6114604,28.0385729 50.311413,28.0385729 50.0386427,28.0385729 C38.6913975,28.0385729 27.3714294,28.0385729 16.0241842,28.0115484 C15.3422584,28.0115484 14.5785015,27.7953522 14.0056839,27.4440333 C13.0782648,26.9035428 12.8054945,25.7955372 13.1328189,24.7686052 C13.4328662,23.7957222 14.3875623,23.06606 15.4240895,23.06606 C16.5697248,23.0390354 17.6880831,23.06606 18.8337185,23.06606 C23.7708612,23.0120109 28.6807269,23.0120109 33.5633156,23.0120109 C33.5633156,23.0120109 33.5633156,23.0120109 33.5633156,23.0120109 Z" id="Path"></path>
            </g>
        </g>
    </g>
</svg>
