<?xml version="1.0" encoding="UTF-8"?>
<svg viewBox="0 0 63 63" version="1.1" xmlns="http://www.w3.org/2000/svg" xmlns:xlink="http://www.w3.org/1999/xlink">
    <!-- Generator: Sketch 63.1 (92452) - https://sketch.com -->
    <title>alert-circle-outlineicon</title>
    <desc>Created with Sketch.</desc>
    <g id="Brand" stroke="none" stroke-width="1" fill="none" fill-rule="evenodd">
        <g id="Brand---Iconography" transform="translate(-528.000000, -402.000000)">
            <g id="alert-circle-outline" transform="translate(531.000000, 405.000000)">
                <path d="M57.6,28.8 C57.6,12.9 44.7,0 28.8,0 C12.9,0 0,12.9 0,28.8 C0,44.7 12.9,57.6 28.8,57.6 C44.7,57.6 57.6,44.7 57.6,28.8 Z" id="Path" stroke="#000000" stroke-width="4.8"></path>
                <path d="M27.939,15.3075 L28.8,33.6 L29.6595,15.3075 C29.6702275,15.071161 29.5832335,14.8408208 29.4189504,14.6705792 C29.2546672,14.5003375 29.0275711,14.4051958 28.791,14.4074591 L28.791,14.4074591 C28.557294,14.4097027 28.3345247,14.5068184 28.1738502,14.6765449 C28.0131758,14.8462714 27.9284032,15.074024 27.939,15.3075 L27.939,15.3075 Z" id="Path" stroke="#000000" stroke-width="4.8" stroke-linecap="round" stroke-linejoin="round"></path>
                <path d="M28.8,45.5865 C27.1431458,45.5865 25.8,44.2433542 25.8,42.5865 C25.8,40.9296458 27.1431458,39.5865 28.8,39.5865 C30.4568542,39.5865 31.8,40.9296458 31.8,42.5865 C31.8,44.2433542 30.4568542,45.5865 28.8,45.5865 Z" id="Path" fill="#000000" fill-rule="nonzero"></path>
            </g>
        </g>
    </g>
</svg>
