<?xml version="1.0" encoding="UTF-8"?>
<svg viewBox="0 0 63 62" version="1.1" xmlns="http://www.w3.org/2000/svg" xmlns:xlink="http://www.w3.org/1999/xlink">
    <!-- Generator: Sketch 63.1 (92452) - https://sketch.com -->
    <title>cogicon</title>
    <desc>Created with Sketch.</desc>
    <g id="Brand" stroke="none" stroke-width="1" fill="none" fill-rule="evenodd">
        <g id="Brand---Iconography" transform="translate(-529.000000, -802.000000)" fill="#000000" fill-rule="nonzero">
            <g id="cog" transform="translate(529.000000, 802.000000)">
                <path d="M62.4,30.1395 C62.3582121,29.3666215 61.7649745,28.7366234 60.996,28.6485 L57.15,28.026 C56.7947133,27.9677194 56.520072,27.6827027 56.475,27.3255 C56.4015,26.853 56.325,26.3625 56.22,25.8975 C56.150641,25.5507701 56.3091209,25.1982579 56.6145,25.02 L60.0315,23.1225 C60.7338666,22.7644705 61.0563892,21.9368775 60.7815,21.198 L60.189,19.563 C59.9199176,18.8214309 59.1362182,18.4008305 58.3695,18.5865 L54.537,19.3365 C54.1855023,19.39933 53.833399,19.2293282 53.664,18.915 C53.4405,18.4965 53.1975,18.0705 52.944,17.652 C52.7552371,17.3463262 52.7817644,16.9544463 53.01,16.677 L55.56,13.731 C56.0958566,13.1556419 56.1209077,12.2717857 55.6185,11.667 L54.5055,10.3305 C54.0039425,9.72285102 53.1239455,9.5932491 52.4685,10.0305 L49.113,12.045 C48.8075499,12.2280071 48.4183306,12.1896333 48.1545,11.9505 C47.784,11.625 47.4045,11.3115 47.049,11.022 C46.7689932,10.8010356 46.6645744,10.4240351 46.791,10.0905 L48.18,6.4305 C48.4931142,5.70762293 48.2151915,4.86482717 47.5335,4.47 L46.02,3.5865 C45.3376164,3.19300512 44.4684548,3.37588447 44.0025,4.011 L41.55,7.092 C41.3680346,7.36822307 41.0156457,7.47645679 40.71,7.35 C40.6185,7.3125 39.8445,6.996 39.243,6.795 C38.904337,6.68462861 38.6769551,6.36665867 38.682,6.0105 L38.7405,2.1 C38.7837292,1.31002321 38.2331264,0.611008272 37.455,0.468 L35.7375,0.168 C34.9635182,0.0342885078 34.2100676,0.494053672 33.975,1.2435 L32.7,4.965 C32.5811341,5.30412116 32.2550905,5.52614711 31.896,5.5125 L30.4335,5.5125 C30.0774615,5.51981417 29.7569136,5.29784987 29.6385,4.962 L28.3695,1.2615 C28.1385187,0.506367096 27.3823145,0.0405658677 26.604,0.174 L24.8835,0.474 C24.1105834,0.615835518 23.5618021,1.307582 23.5995,2.0925 L23.6595,6.0165 C23.6619591,6.37818121 23.4264574,6.69848792 23.0805,6.804 C22.737,6.9375 21.9915,7.2225 21.6525,7.3485 C21.3525,7.4565 21.0255,7.338 20.7615,7.0335 L18.3225,4.0335 C17.8590818,3.39441286 16.9884165,3.20747211 16.3035,3.6 L14.7945,4.4745 C14.104949,4.87027814 13.8253421,5.72269092 14.1465,6.45 L15.534,10.101 C15.6581115,10.4349563 15.5555349,10.8108694 15.279,11.0355 C14.9145,11.3355 14.541,11.6355 14.169,11.9685 C13.9068108,12.2056998 13.5207488,12.2446099 13.2165,12.0645 L9.9,10.011 C9.24110135,9.58239624 8.36623837,9.71095803 7.8585,10.311 L6.75,11.6445 C6.2401671,12.2456765 6.26407409,13.1341119 6.8055,13.707 L9.3675,16.65 C9.6009569,16.9223015 9.6283837,17.3154189 9.435,17.6175 C9.1785,18.0255 8.934,18.4545 8.712,18.8835 C8.54162806,19.2000882 8.18670767,19.3708861 7.833,19.3065 L4.0065,18.567 C3.23947923,18.3819195 2.45574945,18.8021897 2.1855,19.5435 L1.5855,21.1755 C1.31100735,21.9152237 1.63323122,22.7433391 2.3355,23.103 L5.7525,25.0005 C6.06819739,25.174739 6.2303479,25.5369772 6.15,25.8885 L6.114,26.079 C6.036,26.4975 5.964,26.8935 5.895,27.315 C5.84607039,27.6673073 5.57609676,27.9481767 5.226,28.011 L1.3725,28.6335 C0.592922738,28.7292101 0.00545330202,29.3885884 -2.59713487e-05,30.174 L-2.59713487e-05,31.911 C-0.00454917356,32.7004891 0.589046997,33.3653686 1.374,33.45 L5.226,34.071 C5.58153003,34.1288165 5.85640084,34.4140713 5.901,34.7715 C5.9745,35.2455 6.051,35.7345 6.156,36.1995 C6.22535899,36.5462299 6.06687912,36.8987421 5.7615,37.077 L2.346,38.9775 C1.64363336,39.3355295 1.32111077,40.1631225 1.596,40.902 L2.196,42.537 C2.46563544,43.2780905 3.2488749,43.698444 4.0155,43.5135 L7.848,42.771 C8.199632,42.7071875 8.55228686,42.8774556 8.721,43.1925 C8.946,43.6125 9.1875,44.037 9.441,44.4555 C9.63070285,44.7609404 9.60413556,45.1534118 9.375,45.4305 L6.825,48.375 C6.28271965,48.9460788 6.25056581,49.8315957 6.75,50.4405 L7.8615,51.777 C8.36269099,52.3852985 9.24321814,52.5149785 9.8985,52.077 L13.254,50.0625 C13.5594501,49.8794929 13.9486694,49.9178667 14.2125,50.157 C14.5845,50.4825 14.9625,50.796 15.318,51.0855 C15.5977115,51.306631 15.7025889,51.6830985 15.5775,52.017 L14.187,55.677 C13.8738858,56.3998771 14.1518085,57.2426728 14.8335,57.6375 L16.35,58.5135 C17.0320191,58.9073102 17.9011017,58.7250937 18.3675,58.0905 L20.85,55.038 C21.06,54.7785 21.39,54.663 21.6345,54.762 C22.1565,54.978 22.506,55.0995 23.1255,55.3065 C23.4641566,55.417161 23.6918682,55.7347428 23.688,56.091 L23.628,59.9985 C23.5861211,60.7880492 24.1361055,61.4862792 24.9135,61.6305 L26.631,61.9305 C27.4052453,62.0655966 28.1595436,61.6053141 28.3935,60.855 L29.6685,57.1395 C29.7869591,56.8000666 30.113268,56.57786 30.4725,56.592 L31.935,56.592 C32.2911807,56.5842132 32.6119788,56.8063508 32.73,57.1425 L34.0005,60.843 C34.202536,61.5024352 34.8108105,61.9531667 35.5005,61.9545036 C35.5900474,61.9545036 35.6794236,61.9466656 35.7675,61.9305 L37.488,61.6305 C38.2609166,61.4886645 38.8096979,60.796918 38.772,60.012 L38.712,56.088 C38.7096228,55.7332442 38.9371403,55.4177532 39.2745,55.308 C39.8505,55.1145 40.2555,54.9585 40.611,54.8205 L40.701,54.786 C41.166,54.6255 41.391,54.8205 41.5215,54.9825 L44.034,58.077 C44.500262,58.7107597 45.3683233,58.8928976 46.05,58.5 L47.5605,57.6255 C48.2445432,57.2303725 48.5228128,56.3845878 48.207,55.6605 L46.821,52.0095 C46.6955773,51.6759057 46.7976892,51.2994812 47.0745,51.075 C47.439,50.775 47.8125,50.475 48.1845,50.142 C48.4484061,49.9040743 48.8367218,49.8663383 49.1415,50.049 L52.5,52.059 C53.158746,52.4883008 54.0341084,52.3596656 54.5415,51.759 L55.6515,50.424 C56.1613329,49.8228235 56.1374259,48.9343881 55.596,48.3615 L53.037,45.411 C52.8035431,45.1386985 52.7761163,44.7455811 52.9695,44.4435 C53.226,44.037 53.4705,43.608 53.6925,43.1775 C53.8635546,42.861627 54.2179253,42.6910937 54.5715,42.7545 L58.3935,43.5 C59.1605208,43.6850805 59.9442506,43.2648103 60.2145,42.5235 L60.807,40.8915 C61.0813283,40.1522023 60.7590488,39.3245885 60.057,38.9655 L56.637,37.065 C56.3258791,36.8891201 56.1667975,36.53012 56.2455,36.1815 L56.2815,35.991 C56.3595,35.5725 56.4315,35.1765 56.5005,34.755 C56.5494296,34.4026927 56.8194032,34.1218233 57.1695,34.059 L61.023,33.438 C61.8045948,33.343669 62.3943497,32.6832464 62.4,31.896 L62.4,30.1395 L62.4,30.1395 Z M20.0325,44.2395 C19.6533073,44.898852 18.9806945,45.3361444 18.2241958,45.4151505 C17.4676972,45.4941567 16.7192453,45.2052755 16.212,44.6385 C9.20985969,36.896236 9.23713237,25.1008015 16.275,17.391 C16.784904,16.8244291 17.5360617,16.5374866 18.2938406,16.6198022 C19.0516195,16.7021178 19.7236441,17.1436569 20.1,17.8065 L26.9475,29.859 C27.3658779,30.5903964 27.3658779,31.4886036 26.9475,32.22 L20.0325,44.2395 Z M31.2,51.3165007 C29.7725813,51.316866 28.3491394,51.1660244 26.9535,50.8665 C26.2161059,50.7017566 25.6013473,50.1954946 25.2982508,49.5033798 C24.9951543,48.8112649 25.0400005,48.0161435 25.419,47.3625 L32.319,35.3625 C32.7414353,34.6264795 33.5253672,34.1727146 34.374,34.1729971 L48.195,34.1729971 C48.9500685,34.1718232 49.6605101,34.5305054 50.1078909,35.1387655 C50.5552717,35.7470256 50.6860439,36.5320598 50.46,37.2525 C47.8365,45.4005 40.2,51.3165007 31.2,51.3165007 Z M32.3265,26.7315 L25.5,14.7105 C25.1247988,14.0558361 25.0835338,13.2616934 25.3888626,12.5716681 C25.6941915,11.8816427 26.3096679,11.3781011 27.0465,11.2155 C28.4122457,10.9276811 29.8042562,10.7828999 31.2,10.7834981 C40.2,10.7834981 47.8365,16.6995 50.4555,24.852 C50.6815439,25.5724402 50.5507717,26.3574744 50.1033909,26.9657345 C49.6560101,27.5739946 48.9455685,27.9326768 48.1905,27.9315046 L34.3905,27.9315046 C33.5363843,27.9331877 32.7476031,27.474594 32.3265,26.7315 Z" id="Shape"></path>
            </g>
        </g>
    </g>
</svg>
