<?xml version="1.0" encoding="UTF-8"?>
<svg viewBox="0 0 194 138" version="1.1" xmlns="http://www.w3.org/2000/svg" xmlns:xlink="http://www.w3.org/1999/xlink">
    <!-- Generator: Sketch 63.1 (92452) - https://sketch.com -->
    <title>Group</title>
    <desc>Created with Sketch.</desc>
    <g id="Brand" stroke="none" stroke-width="1" fill="none" fill-rule="evenodd">
        <g id="Brand---Iconography" transform="translate(-863.000000, -1266.000000)" fill="#000000" fill-rule="nonzero">
            <g id="Group" transform="translate(863.000000, 1266.000000)">
                <path d="M60,38 C61.52,38.88 63.52,38.32 64.4,36.8 C65.28,35.28 64.72,33.28 63.2,32.4 L45.6,22.32 L45.6,3.2 C45.6,1.44 44.16,0 42.4,0 C40.64,0 39.2,1.44 39.2,3.2 L39.2,22.56 L22.32,33.28 C20.8,34.24 20.4,36.24 21.36,37.68 C22,38.64 23.04,39.2 24.08,39.2 C24.64,39.2 25.28,39.04 25.76,38.72 L39.2,30.08 L39.2,109.6 C39.2,111.36 40.64,112.8 42.4,112.8 C44.16,112.8 45.6,111.36 45.6,109.6 L45.6,29.68 L60,38 Z" id="Path"></path>
                <path d="M169.6,38 C171.12,38.88 173.12,38.32 174,36.8 C174.88,35.28 174.32,33.28 172.8,32.4 L155.2,22.32 L155.2,3.2 C155.2,1.44 153.76,0 152,0 C150.24,0 148.8,1.44 148.8,3.2 L148.8,22.56 L131.92,33.36 C130.4,34.32 130,36.32 130.96,37.76 C131.6,38.72 132.64,39.28 133.68,39.28 C134.24,39.28 134.88,39.12 135.36,38.8 L148.8,30.08 L148.8,109.6 C148.8,111.36 150.24,112.8 152,112.8 C153.76,112.8 155.2,111.36 155.2,109.6 L155.2,29.68 L169.6,38 Z" id="Path"></path>
                <path d="M115.2,62.8 C116.72,63.68 118.72,63.12 119.6,61.6 C120.48,60.08 119.92,58.08 118.4,57.2 L100.8,47.12 L100.8,28 C100.8,26.24 99.36,24.8 97.6,24.8 C95.84,24.8 94.4,26.24 94.4,28 L94.4,47.36 L77.52,58.08 C76,59.04 75.6,61.04 76.56,62.48 C77.2,63.44 78.24,64 79.28,64 C79.84,64 80.48,63.84 80.96,63.52 L94.4,54.88 L94.4,134.4 C94.4,136.16 95.84,137.6 97.6,137.6 C99.36,137.6 100.8,136.16 100.8,134.4 L100.8,54.48 L115.2,62.8 Z" id="Path"></path>
                <path d="M25.76,92.96 C22.64,96.08 19.28,97.68 15.92,97.68 C15.84,97.68 15.84,97.68 15.76,97.68 C10,97.6 5.6,93.12 5.52,92.96 C4.32,91.68 2.32,91.6 1.04,92.8 C-0.24,94 -0.32,96 0.88,97.36 C1.12,97.6 7.12,103.92 15.6,104.08 C15.68,104.08 15.76,104.08 15.92,104.08 C21.04,104.08 25.92,101.84 30.32,97.44 C31.6,96.16 31.6,94.16 30.32,92.88 C29.04,91.68 26.96,91.68 25.76,92.96 Z" id="Path"></path>
                <path d="M80.16,92.96 C77.04,96.08 73.68,97.68 70.32,97.68 C70.24,97.68 70.24,97.68 70.16,97.68 C64.4,97.6 60,93.12 59.92,92.96 C58.72,91.68 56.72,91.6 55.44,92.8 C54.16,94 54.08,96 55.28,97.36 C55.52,97.6 61.52,103.92 70,104.08 C70.08,104.08 70.16,104.08 70.32,104.08 C75.44,104.08 80.32,101.84 84.72,97.44 C86,96.16 86,94.16 84.72,92.88 C83.44,91.68 81.36,91.68 80.16,92.96 Z" id="Path"></path>
                <path d="M135.36,92.96 C132.24,96.08 128.88,97.68 125.52,97.68 C125.44,97.68 125.44,97.68 125.36,97.68 C119.6,97.6 115.2,93.12 115.12,92.96 C113.92,91.68 111.92,91.6 110.64,92.8 C109.36,94 109.28,96 110.48,97.36 C110.72,97.6 116.72,103.92 125.2,104.08 C125.28,104.08 125.36,104.08 125.52,104.08 C130.64,104.08 135.52,101.84 139.92,97.44 C141.2,96.16 141.2,94.16 139.92,92.88 C138.64,91.68 136.56,91.68 135.36,92.96 Z" id="Path"></path>
                <path d="M80.16,107.36 C76.96,110.56 73.6,112.16 70.16,112.08 C64.4,112 60,107.52 59.92,107.36 C58.72,106.08 56.72,106 55.44,107.2 C54.16,108.4 54.08,110.4 55.28,111.76 C55.52,112 61.52,118.32 70,118.48 C70.08,118.48 70.16,118.48 70.32,118.48 C75.44,118.48 80.32,116.24 84.72,111.84 C86,110.56 86,108.56 84.72,107.28 C83.44,106.08 81.36,106.08 80.16,107.36 Z" id="Path"></path>
                <path d="M135.36,107.36 C132.16,110.56 128.8,112.16 125.36,112.08 C119.6,112 115.2,107.52 115.12,107.36 C113.92,106.08 111.92,106 110.64,107.2 C109.36,108.4 109.28,110.4 110.48,111.76 C110.72,112 116.72,118.32 125.2,118.48 C125.28,118.48 125.36,118.48 125.52,118.48 C130.64,118.48 135.52,116.24 139.92,111.84 C141.2,110.56 141.2,108.56 139.92,107.28 C138.64,106.08 136.56,106.08 135.36,107.36 Z" id="Path"></path>
                <path d="M192.64,92.96 C191.36,91.68 189.36,91.68 188.08,92.96 C184.96,96.08 181.6,97.68 178.24,97.68 C178.16,97.68 178.16,97.68 178.08,97.68 C172.32,97.6 167.92,93.12 167.84,92.96 C166.64,91.68 164.64,91.6 163.36,92.8 C162.08,94 162,96 163.2,97.36 C163.44,97.6 169.44,103.92 177.92,104.08 C178,104.08 178.08,104.08 178.24,104.08 C183.36,104.08 188.24,101.84 192.64,97.44 C193.92,96.24 193.92,94.16 192.64,92.96 Z" id="Path"></path>
            </g>
        </g>
    </g>
</svg>
