<?xml version="1.0" encoding="UTF-8"?>
<svg viewBox="0 0 74 55" version="1.1" xmlns="http://www.w3.org/2000/svg" xmlns:xlink="http://www.w3.org/1999/xlink">
    <!-- Generator: Sketch 63.1 (92452) - https://sketch.com -->
    <title>code-slashicon</title>
    <desc>Created with Sketch.</desc>
    <g id="Brand" stroke="none" stroke-width="1" fill="none" fill-rule="evenodd">
        <g id="Brand---Iconography" transform="translate(-1323.000000, -407.000000)" fill="#000000" fill-rule="nonzero">
            <g id="code-slash" transform="translate(1323.000000, 407.000000)">
                <path d="M22.35,47.2500015 C21.5871371,47.2507504 20.8501503,46.9734471 20.277,46.47 L1.077,29.67 C0.393826445,29.0718646 0.00199397589,28.2080155 0.00199397589,27.3 C0.00199397589,26.3919845 0.393826445,25.5281354 1.077,24.93 L20.277,8.13 C21.5863291,6.98428532 23.5765353,7.11692097 24.72225,8.42625003 C25.8679647,9.73557909 25.735329,11.7257853 24.426,12.8715 L7.9335,27.3 L24.4245,41.7285 C25.4128409,42.592555 25.7616842,43.9789704 25.2999658,45.2078824 C24.8382474,46.4367945 23.6627865,47.2505088 22.35,47.2500015 L22.35,47.2500015 Z" id="Path"></path>
                <path d="M51.15,47.2500052 C49.836939,47.2511346 48.6609046,46.4376447 48.1987969,45.2085852 C47.7366893,43.9795258 48.0854518,42.5927355 49.074,41.7285 L65.5665,27.3 L49.0755,12.8715 C47.766171,11.7257853 47.6335354,9.7355791 48.7792501,8.42625005 C49.9249648,7.11692101 51.9151709,6.98428534 53.2245,8.13 L72.4245,24.93 C73.1076736,25.5281354 73.499506,26.3919845 73.499506,27.3 C73.499506,28.2080155 73.1076736,29.0718646 72.4245,29.67 L53.2245,46.47 C52.6511061,46.9740294 51.9134293,47.2513916 51.15,47.2500052 L51.15,47.2500052 Z" id="Path"></path>
                <path d="M29.55,54.45 C28.5553336,54.45 27.6192056,53.9797804 27.0248663,53.1822078 C26.430527,52.3846352 26.2478096,51.3532036 26.532,50.4 L40.932,2.4 C41.2273275,1.29101162 42.1024161,0.430393967 43.2161744,0.153597937 C44.3299327,-0.123198093 45.5060959,0.227633587 46.28622,1.06934608 C47.0663442,1.91105856 47.3269658,3.11044137 46.9665,4.2 L32.5665,52.2 C32.1687168,53.5342065 30.9422419,54.4490312 29.55,54.45 L29.55,54.45 Z" id="Path"></path>
            </g>
        </g>
    </g>
</svg>
