<?xml version="1.0" encoding="UTF-8"?>
<svg viewBox="0 0 195 138" version="1.1" xmlns="http://www.w3.org/2000/svg" xmlns:xlink="http://www.w3.org/1999/xlink">
    <!-- Generator: Sketch 63.1 (92452) - https://sketch.com -->
    <title>Group</title>
    <desc>Created with Sketch.</desc>
    <g id="Brand" stroke="none" stroke-width="1" fill="none" fill-rule="evenodd">
        <g id="Brand---Iconography" transform="translate(-543.000000, -1266.000000)" fill="#000000" fill-rule="nonzero">
            <g id="Group" transform="translate(543.000000, 1266.000000)">
                <path d="M60,38 C61.52,38.88 63.52,38.32 64.4,36.8 C65.28,35.28 64.72,33.28 63.2,32.4 L45.6,22.32 L45.6,3.2 C45.6,1.44 44.16,0 42.4,0 C40.64,0 39.2,1.44 39.2,3.2 L39.2,22.56 L22.32,33.28 C20.8,34.24 20.4,36.24 21.36,37.68 C22,38.64 23.04,39.2 24.08,39.2 C24.64,39.2 25.28,39.04 25.76,38.72 L39.2,30.08 L39.2,109.6 C39.2,111.36 40.64,112.8 42.4,112.8 C44.16,112.8 45.6,111.36 45.6,109.6 L45.6,29.68 L60,38 Z" id="Path"></path>
                <path d="M169.6,38 C171.12,38.88 173.12,38.32 174,36.8 C174.88,35.28 174.32,33.28 172.8,32.4 L155.2,22.32 L155.2,3.2 C155.2,1.44 153.76,0 152,0 C150.24,0 148.8,1.44 148.8,3.2 L148.8,22.56 L131.92,33.36 C130.4,34.32 130,36.32 130.96,37.76 C131.6,38.72 132.64,39.28 133.68,39.28 C134.24,39.28 134.88,39.12 135.36,38.8 L148.8,30.08 L148.8,109.6 C148.8,111.36 150.24,112.8 152,112.8 C153.76,112.8 155.2,111.36 155.2,109.6 L155.2,29.68 L169.6,38 Z" id="Path"></path>
                <path d="M115.2,62.8 C116.72,63.68 118.72,63.12 119.6,61.6 C120.48,60.08 119.92,58.08 118.4,57.2 L100.8,47.12 L100.8,28 C100.8,26.24 99.36,24.8 97.6,24.8 C95.84,24.8 94.4,26.24 94.4,28 L94.4,47.36 L77.52,58.08 C76,59.04 75.6,61.04 76.56,62.48 C77.2,63.44 78.24,64 79.28,64 C79.84,64 80.48,63.84 80.96,63.52 L94.4,54.88 L94.4,134.4 C94.4,136.16 95.84,137.6 97.6,137.6 C99.36,137.6 100.8,136.16 100.8,134.4 L100.8,54.48 L115.2,62.8 Z" id="Path"></path>
                <path d="M28,93.6 L3.2,93.6 C1.44,93.6 0,95.04 0,96.8 C0,98.56 1.44,100 3.2,100 L28,100 C29.76,100 31.2,98.56 31.2,96.8 C31.2,95.04 29.76,93.6 28,93.6 Z" id="Path"></path>
                <path d="M82.4,93.6 L57.6,93.6 C55.84,93.6 54.4,95.04 54.4,96.8 C54.4,98.56 55.84,100 57.6,100 L82.4,100 C84.16,100 85.6,98.56 85.6,96.8 C85.6,95.04 84.16,93.6 82.4,93.6 Z" id="Path"></path>
                <path d="M136.8,93.6 L112,93.6 C110.24,93.6 108.8,95.04 108.8,96.8 C108.8,98.56 110.24,100 112,100 L136.8,100 C138.56,100 140,98.56 140,96.8 C140,95.04 138.56,93.6 136.8,93.6 Z" id="Path"></path>
                <path d="M191.2,93.6 L166.4,93.6 C164.64,93.6 163.2,95.04 163.2,96.8 C163.2,98.56 164.64,100 166.4,100 L191.2,100 C192.96,100 194.4,98.56 194.4,96.8 C194.4,95.04 192.96,93.6 191.2,93.6 Z" id="Path"></path>
            </g>
        </g>
    </g>
</svg>
