<?xml version="1.0" encoding="UTF-8"?>
<svg viewBox="0 0 63 63" version="1.1" xmlns="http://www.w3.org/2000/svg" xmlns:xlink="http://www.w3.org/1999/xlink">
    <!-- Generator: Sketch 63.1 (92452) - https://sketch.com -->
    <title>searchicon</title>
    <desc>Created with Sketch.</desc>
    <g id="Brand" stroke="none" stroke-width="1" fill="none" fill-rule="evenodd">
        <g id="Brand---Iconography" transform="translate(-689.000000, -403.000000)" fill="#000000" fill-rule="nonzero">
            <g id="search" transform="translate(689.000000, 403.000000)">
                <path d="M61.3035,56.0085 L47.19,41.895 C50.5878998,37.3715253 52.4221826,31.8655178 52.416,26.208 C52.416,11.757 40.659,0 26.208,0 C11.757,0 0,11.757 0,26.208 C0,40.659 11.757,52.416 26.208,52.416 C31.8655178,52.4221826 37.3715253,50.5878998 41.895,47.19 L56.0085,61.3035 C57.4918311,62.629465 59.7524975,62.5661976 61.1593475,61.1593475 C62.5661976,59.7524975 62.629465,57.4918311 61.3035,56.0085 Z M7.488,26.208 C7.488,15.8692295 15.8692295,7.488 26.208,7.488 C36.5467705,7.488 44.928,15.8692295 44.928,26.208 C44.928,36.5467705 36.5467705,44.928 26.208,44.928 C15.8743692,44.9156021 7.50039789,36.5416308 7.488,26.208 Z" id="Shape"></path>
            </g>
        </g>
    </g>
</svg>
