<?xml version="1.0" encoding="UTF-8"?>
<svg viewBox="0 0 64 63" version="1.1" xmlns="http://www.w3.org/2000/svg" xmlns:xlink="http://www.w3.org/1999/xlink">
    <!-- Generator: Sketch 63.1 (92452) - https://sketch.com -->
    <title>timer-outlineicon</title>
    <desc>Created with Sketch.</desc>
    <g id="Brand" stroke="none" stroke-width="1" fill="none" fill-rule="evenodd">
        <g id="Brand---Iconography" transform="translate(-688.000000, -948.000000)">
            <g id="timer-outline" transform="translate(691.000000, 951.000000)">
                <path d="M7.4865,9.6 C2.8292923,14.8014559 0.221856934,21.5186274 0.15,28.5 C-0.027,44.4525 12.9975,57.57 28.95,57.6000522 C44.88,57.63 57.75,44.7255 57.75,28.8 C57.75,13.119 45.2175,0.3585 29.625,-0.000337744621 C29.4476786,-0.00569744595 29.2756511,0.0608895159 29.1483762,0.184487524 C29.0211014,0.308085533 28.9495016,0.478087758 28.95,0.6555 L28.95,13.2" id="Path" stroke="#000000" stroke-width="4.8" stroke-linecap="round" stroke-linejoin="round"></path>
                <path d="M25.557,32.1945 L13.707,15.2445 C13.3686248,14.7597681 13.4266351,14.1021528 13.844644,13.684144 C14.2626528,13.2661351 14.9202681,13.2081248 15.405,13.5465 L32.355,25.3965 C34.5183779,26.9546094 35.02883,29.9615908 33.5008226,32.1463338 C31.9728151,34.3310768 28.9731893,34.8831126 26.7675,33.3855 C26.2988074,33.0607088 25.8893594,32.6578565 25.557,32.1945 Z" id="Path" fill="#000000" fill-rule="nonzero"></path>
            </g>
        </g>
    </g>
</svg>
