<?xml version="1.0" encoding="UTF-8"?>
<svg viewBox="0 0 173 165" version="1.1" xmlns="http://www.w3.org/2000/svg" xmlns:xlink="http://www.w3.org/1999/xlink">
    <!-- Generator: Sketch 63.1 (92452) - https://sketch.com -->
    <title>Group</title>
    <desc>Created with Sketch.</desc>
    <g id="Brand" stroke="none" stroke-width="1" fill="none" fill-rule="evenodd">
        <g id="Brand---Iconography" transform="translate(-1193.000000, -1253.000000)" fill="#000000" fill-rule="nonzero">
            <g id="Group" transform="translate(1193.000000, 1253.000000)">
                <path d="M86.7,99 C79.5,99 73.7,104.8 73.7,112 C73.7,119.2 79.5,125 86.7,125 C93.9,125 99.7,119.2 99.7,112 C99.7,104.8 93.8,99 86.7,99 Z M86.7,117 C83.9,117 81.7,114.8 81.7,112 C81.7,109.2 83.9,107 86.7,107 C89.5,107 91.7,109.2 91.7,112 C91.7,114.8 89.4,117 86.7,117 Z" id="Shape"></path>
                <path d="M86.7,79 C68.5,79 53.7,93.8 53.7,112 C53.7,130.2 68.5,145 86.7,145 C104.9,145 119.7,130.2 119.7,112 C119.7,93.8 104.9,79 86.7,79 Z M86.7,137 C72.9,137 61.7,125.8 61.7,112 C61.7,98.2 72.9,87 86.7,87 C100.5,87 111.7,98.2 111.7,112 C111.7,125.8 100.5,137 86.7,137 Z" id="Shape"></path>
                <path d="M86.7,59 C57.5,59 33.7,82.8 33.7,112 C33.7,141.2 57.5,165 86.7,165 C115.9,165 139.7,141.2 139.7,112 C139.7,82.8 115.9,59 86.7,59 Z M86.7,157 C61.9,157 41.7,136.8 41.7,112 C41.7,87.2 61.9,67 86.7,67 C111.5,67 131.7,87.2 131.7,112 C131.7,136.8 111.5,157 86.7,157 Z" id="Shape"></path>
                <path d="M71,44.8 C70.9,42.6 69,40.9 66.8,41 C34.5,42.6 18.3,59.7 10.4,73.7 C1.9,88.7 1,103.2 1,103.8 C0.9,106 2.6,107.9 4.8,108 C4.9,108 4.9,108 5,108 C7.1,108 8.9,106.4 9,104.2 C9,104.1 9.8,90.7 17.5,77.3 C27.6,59.7 44.3,50.2 67.2,49 C69.4,48.9 71.1,47 71,44.8 Z" id="Path"></path>
                <path d="M1.6,67.2 C2.3,67.8 3.2,68 4,68 C5.2,68 6.4,67.4 7.2,66.4 C7.3,66.3 17.3,53.1 33.9,44 C55.8,32.1 78.3,32.6 101,45.5 C102.9,46.6 105.4,45.9 106.5,44 C107.6,42.1 106.9,39.6 105,38.5 C73.4,20.5 46.7,27.8 29.8,37.1 C11.8,47.1 1.2,61 0.8,61.6 C-0.5,63.4 -0.2,65.9 1.6,67.2 Z" id="Path"></path>
                <path d="M61.5,14.7 C36.8,16.4 18.7,27.2 17.9,27.6 C16,28.7 15.4,31.2 16.6,33.1 C17.7,35 20.2,35.6 22.1,34.5 C22.3,34.4 39.5,24.1 62.3,22.7 C92.5,20.8 117.9,34.4 137.7,63.4 C138.5,64.5 139.7,65.1 141,65.1 C141.8,65.1 142.6,64.9 143.3,64.4 C145.1,63.2 145.6,60.7 144.3,58.8 C117.4,19.5 84.4,13.1 61.5,14.7 Z" id="Path"></path>
                <path d="M115,12.3 C89.6,0.1 65.8,1 64.8,1 C62.6,1.1 60.9,3 61,5.2 C61.1,7.3 62.9,9 65,9 C65.1,9 65.1,9 65.2,9 C65.4,9 88.3,8.2 111.8,19.6 C143.1,34.8 161,63.3 165,104.4 C165.2,106.5 166.9,108 169,108 C169.1,108 169.3,108 169.4,108 C171.6,107.8 173.2,105.8 173,103.6 C167.6,48.6 138.5,23.6 115,12.3 Z" id="Path"></path>
            </g>
        </g>
    </g>
</svg>
