<?xml version="1.0" encoding="UTF-8"?>
<svg viewBox="0 0 68 68" version="1.1" xmlns="http://www.w3.org/2000/svg" xmlns:xlink="http://www.w3.org/1999/xlink">
    <!-- Generator: Sketch 63.1 (92452) - https://sketch.com -->
    <title>call-outlineicon</title>
    <desc>Created with Sketch.</desc>
    <g id="Brand" stroke="none" stroke-width="1" fill="none" fill-rule="evenodd">
        <g id="Brand---Iconography" transform="translate(-1326.000000, -253.000000)" stroke="#000000" stroke-width="4.8">
            <g id="call-outline" transform="translate(1329.000000, 256.000000)">
                <path d="M60.6,48.9 C58.218,46.5 52.449,42.9975 49.65,41.586 C46.005,39.75 45.705,39.6 42.84,41.7285 C40.929,43.149 39.6585,44.418 37.422,43.941 C35.1855,43.464 30.3255,40.7745 26.07,36.5325 C21.8145,32.2905 18.969,27.2895 18.4905,25.0605 C18.012,22.8315 19.302,21.576 20.709,19.6605 C22.692,16.9605 22.542,16.5105 20.847,12.8655 C19.5255,10.0305 15.921,4.3155 13.512,1.9455 C10.935,-0.6 10.935,-0.15 9.2745,0.54 C7.92265612,1.10878301 6.62574048,1.80017009 5.4,2.6055 C3,4.2 1.668,5.5245 0.7365,7.515 C-0.195,9.5055 -0.6135,14.172 4.197,22.911 C9.0075,31.65 12.3825,36.1185 19.368,43.0845 C26.3535,50.0505 31.725,53.796 39.5775,58.2 C49.2915,63.6405 53.0175,62.58 55.014,61.65 C57.0105,60.72 58.341,59.4 59.9385,57 C60.7459114,55.7763236 61.4388411,54.4808463 62.0085,53.13 C62.7,51.4755 63.15,51.4755 60.6,48.9 Z" id="Path"></path>
            </g>
        </g>
    </g>
</svg>
